<?xml version="1.0" encoding="UTF-8"?> <svg xmlns="http://www.w3.org/2000/svg" id="OBJECTS" viewBox="0 0 500 312"><defs><style>.cls-1{fill:#d8e9fd;}.cls-2{fill:#fd5177;}.cls-3{fill:#ffa19f;}.cls-4{fill:#0d0a3e;}.cls-5{fill:#9a5bfd;}.cls-6{fill:#fff;}.cls-7{fill:#832ddb;}.cls-8{fill:#ec7b7b;}.cls-9{fill:#3c3c6a;}.cls-10{fill:#00bad9;}.cls-11{fill:#0092c4;}.cls-12{fill:#f7891b;}.cls-13{fill:#ffae0b;}.cls-14{opacity:0.15;}.cls-15{fill:#d8234f;}</style></defs><path class="cls-1" d="M417.8,284.2c8.4-8.9,26.2-28.6,21.2-59.3-3.4-21-5.9-52.6-87.1-73.6-94-24.2-81.1-90.9-136.5-118.7-62-31.2-118.5,5.1-104.6,67,13.5,60.1-22.7,61.3-40.4,97.5-20.3,41.6,14.5,87.2,54.2,87.1Z"></path><path class="cls-2" d="M287.6,144.1h48.7A28.9,28.9,0,0,1,365.2,173V283.9a0,0,0,0,1,0,0H261.1a0,0,0,0,1,0,0V170.7A26.6,26.6,0,0,1,287.6,144.1Z"></path><path class="cls-3" d="M205.1,244c11.4,3.1,26.9-34.4,32.2-48.2,1.2-3.1,1.8-5,1.8-5l-16.3-11.2-2.6,4.8C212.6,198.7,191.6,240.4,205.1,244Z"></path><path class="cls-4" d="M220.2,184.4l17.1,11.4c1.2-3.1,1.8-5,1.8-5l-16.3-11.2Z"></path><path class="cls-5" d="M251.1,178.6v.8l-.2,1.6-.9,5.9-.5,3-.2,1.5-.3,2.3-1,6.8-11.3-7.6h-.1l-1.4-.9H235l-3.2-2.2-1.6-1.1L219,181.1c2.5-4.7,5-9.3,7.5-13.7h0l1.9-3.2,1.7-2.7h0a4.3,4.3,0,0,0,.4-.7c7-11.1,13.8-19.4,19-21.5l1.2-.4v39.7Z"></path><path class="cls-6" d="M235,191.9h.1l1.4.9.8-3.9,3.8-19.4a.8.8,0,0,0-.7-1,.8.8,0,0,0-.9.7l-3.1,15.9-.8,3.6Z"></path><path class="cls-5" d="M357.8,214.9h-1.2l-3.6.3-2.3.2-10.6.8-2.6.2h-1.2l-2.3.2-7.3.6a23.7,23.7,0,0,1-.6-3v.6l-.2,10.5-.3,17.3s.1,19.8-.1,41H221.4c1.2-7.7,2.7-16.8,4.3-26.6l.3-1.7c.3-2,.7-4,1-6s.3-2,.5-3,.1-.8.2-1.2a17,17,0,0,1,.4-2.2c.6-4.1,1.3-8.2,2-12.4a2.5,2.5,0,0,0,.1-.8c.5-2.7.9-5.4,1.4-8.1.1-.7.3-1.5.4-2.3s.3-2,.5-3,.3-1.7.4-2.5c1.3-7.3,2.5-14.4,3.7-21.1.5-3.3,1.1-6.5,1.7-9.6a1.3,1.3,0,0,1,.1-.6c0-.2.1-.5.1-.7a.8.8,0,0,1,.1-.4,5.2,5.2,0,0,1,.2-1.1c0-.2.1-.5.1-.7,1.4-7.8,3.4-17.9,5.5-26.1l.9-3.4.4-1.3c.2-.6.3-1.2.5-1.9,1.2-3.9,2.4-6.7,3.4-7.7l.4-.2.7-.3.6-.3h0c3.9-1.7,7.6-3,11.2-4.2l2-.6,1.8-.5,3.2-.8a105.3,105.3,0,0,1,16.3-2.9l22.5.6s4.3,2.5,11.1,7.4h0l3,2.1c4.1,3.1,9,6.8,14.2,11.3l1.7,1.4h0l1.2,1.1h0A49.5,49.5,0,0,1,351,170.8a17.7,17.7,0,0,1,.8,2.2c.3.9.6,2.1.9,3.4l.3,1.3c.2.6.3,1.2.5,1.9.7,3.3,1.5,7.4,2.2,11.7l.3,2.1h0c.4,2.5.7,5,1,7.5a19.4,19.4,0,0,0,.2,2.4c.1.9.1,1.8.2,2.7s.1,1.7.2,2.6.2,3.6.2,5.4h0Z"></path><path class="cls-7" d="M251.1,139.6l-.4.2a1,1,0,0,1-.9-.2l-.3-.3,1.2-.4.6-.3h0A1.2,1.2,0,0,1,251.1,139.6Z"></path><path class="cls-7" d="M261.2,139.8a.9.9,0,0,0,1.3,0l1.7-1.8a.9.9,0,0,0,0-1.3,1,1,0,0,0-1.3,0l-1.7,1.8A.9.9,0,0,0,261.2,139.8Z"></path><path class="cls-7" d="M269.5,132.5a.9.9,0,0,1-.3.6l-1.7,1.7a1,1,0,0,1-1.4,0,1,1,0,0,1,0-1.3l.2-.2Z"></path><path class="cls-7" d="M265.9,137.8l1.8,1.8a1,1,0,0,0,1.3,0,1.2,1.2,0,0,0,0-1.4l-1.8-1.7a.9.9,0,1,0-1.3,1.3Z"></path><path class="cls-7" d="M264.5,135.1a1.2,1.2,0,0,1-1.4,0l-.6-.7,2-.6A1.1,1.1,0,0,1,264.5,135.1Z"></path><path class="cls-7" d="M279.1,139.8a.9.9,0,0,0,1.3,0l1.7-1.8a.9.9,0,0,0,0-1.3,1,1,0,0,0-1.3,0l-1.7,1.8A.9.9,0,0,0,279.1,139.8Z"></path><path class="cls-7" d="M284,134.8a1,1,0,0,0,1.4,0l1.7-1.7a1,1,0,0,0,0-1.4,1.1,1.1,0,0,0-1.3,0l-1.8,1.8A1,1,0,0,0,284,134.8Z"></path><path class="cls-7" d="M283.8,137.8l1.8,1.8a1,1,0,0,0,1.3,0,1.2,1.2,0,0,0,0-1.4l-1.8-1.7a.9.9,0,0,0-1.3,1.3Z"></path><path class="cls-7" d="M279.3,133.3l1.7,1.8a1,1,0,0,0,1.4-1.4l-1.8-1.7a.9.9,0,0,0-1.3,1.3Z"></path><path class="cls-7" d="M297,139.8a.9.9,0,0,0,1.3,0L300,138a.9.9,0,0,0,0-1.3,1,1,0,0,0-1.3,0l-1.7,1.8A.9.9,0,0,0,297,139.8Z"></path><path class="cls-7" d="M301.9,134.8a1,1,0,0,0,1.4,0l1.7-1.7a1,1,0,0,0,0-1.4,1,1,0,0,0-1.3,0l-1.8,1.8A1,1,0,0,0,301.9,134.8Z"></path><path class="cls-7" d="M301.7,137.8l1.7,1.8a1,1,0,1,0,1.4-1.4l-1.8-1.7a.9.9,0,0,0-1.3,1.3Z"></path><path class="cls-7" d="M297.2,133.3l1.7,1.8a1,1,0,1,0,1.4-1.4l-1.8-1.7a.9.9,0,0,0-1.3,1.3Z"></path><path class="cls-7" d="M314.8,139.8a1,1,0,0,0,1.4,0l1.7-1.8a.9.9,0,0,0,0-1.3,1,1,0,0,0-1.3,0l-1.8,1.8A1,1,0,0,0,314.8,139.8Z"></path><path class="cls-7" d="M322.4,139.7a.9.9,0,0,1-1.1-.1l-1.7-1.8-.2-.2Z"></path><path class="cls-7" d="M243.3,153.6a1,1,0,0,0,1.3,0l1.7-1.8a.9.9,0,0,0-1.3-1.3l-1.7,1.7A1,1,0,0,0,243.3,153.6Z"></path><path class="cls-7" d="M248.2,148.6a1.2,1.2,0,0,0,1.4,0l1.7-1.8a.9.9,0,0,0-1.3-1.3l-1.8,1.7A1.2,1.2,0,0,0,248.2,148.6Z"></path><path class="cls-7" d="M248,151.6l1.8,1.7a.9.9,0,0,0,1.3,0,1,1,0,0,0,0-1.3l-1.8-1.8a1,1,0,0,0-1.3,0A1,1,0,0,0,248,151.6Z"></path><path class="cls-7" d="M243.5,147.1l1.7,1.7a1,1,0,0,0,1.4,0,1,1,0,0,0,0-1.3l-1.8-1.8a1,1,0,0,0-1.3,0A1,1,0,0,0,243.5,147.1Z"></path><path class="cls-7" d="M261.2,153.6a1,1,0,0,0,1.3,0l1.7-1.8a.9.9,0,0,0-1.3-1.3l-1.7,1.7A1,1,0,0,0,261.2,153.6Z"></path><path class="cls-7" d="M266.1,148.6a1.2,1.2,0,0,0,1.4,0l1.7-1.8a.9.9,0,0,0-1.3-1.3l-1.8,1.7A1.2,1.2,0,0,0,266.1,148.6Z"></path><path class="cls-7" d="M265.9,151.6l1.8,1.7a.9.9,0,0,0,1.3,0,1,1,0,0,0,0-1.3l-1.8-1.8a1,1,0,0,0-1.3,0A1,1,0,0,0,265.9,151.6Z"></path><path class="cls-7" d="M261.4,147.1l1.7,1.7a1,1,0,0,0,1.4,0,1,1,0,0,0,0-1.3l-1.8-1.8a1,1,0,0,0-1.3,0A1,1,0,0,0,261.4,147.1Z"></path><path class="cls-7" d="M279.1,153.6a1,1,0,0,0,1.3,0l1.7-1.8a.9.9,0,1,0-1.3-1.3l-1.7,1.7A1,1,0,0,0,279.1,153.6Z"></path><path class="cls-7" d="M284,148.6a1.2,1.2,0,0,0,1.4,0l1.7-1.8a.9.9,0,1,0-1.3-1.3l-1.8,1.7A1.2,1.2,0,0,0,284,148.6Z"></path><path class="cls-7" d="M283.8,151.6l1.8,1.7a.9.9,0,0,0,1.3,0,1,1,0,0,0,0-1.3l-1.8-1.8a1,1,0,0,0-1.3,0A1,1,0,0,0,283.8,151.6Z"></path><path class="cls-7" d="M279.3,147.1l1.7,1.7a1,1,0,0,0,1.4,0,1,1,0,0,0,0-1.3l-1.8-1.8a1.1,1.1,0,0,0-1.3,0A1,1,0,0,0,279.3,147.1Z"></path><path class="cls-7" d="M297,153.6a1,1,0,0,0,1.3,0l1.7-1.8a.9.9,0,1,0-1.3-1.3l-1.7,1.7A1,1,0,0,0,297,153.6Z"></path><path class="cls-7" d="M301.9,148.6a1.2,1.2,0,0,0,1.4,0l1.7-1.8a.9.9,0,1,0-1.3-1.3l-1.8,1.7A1.2,1.2,0,0,0,301.9,148.6Z"></path><path class="cls-7" d="M301.7,151.6l1.7,1.7a1,1,0,0,0,1.4,0,1,1,0,0,0,0-1.3l-1.8-1.8a1,1,0,0,0-1.3,0A1,1,0,0,0,301.7,151.6Z"></path><path class="cls-7" d="M297.2,147.1l1.7,1.7a1,1,0,0,0,1.4,0,1,1,0,0,0,0-1.3l-1.8-1.8a1,1,0,0,0-1.3,0A1,1,0,0,0,297.2,147.1Z"></path><path class="cls-7" d="M314.8,153.6a1.2,1.2,0,0,0,1.4,0l1.7-1.8a.9.9,0,0,0-1.3-1.3l-1.8,1.7A1.2,1.2,0,0,0,314.8,153.6Z"></path><path class="cls-7" d="M319.8,148.6a1,1,0,0,0,1.3,0l1.8-1.8a.9.9,0,0,0-1.3-1.3l-1.8,1.7A1.2,1.2,0,0,0,319.8,148.6Z"></path><path class="cls-7" d="M319.6,151.6l1.7,1.7a1,1,0,0,0,1.4,0,1,1,0,0,0,0-1.3l-1.8-1.8a1,1,0,0,0-1.3,0A1,1,0,0,0,319.6,151.6Z"></path><path class="cls-7" d="M315.1,147.1l1.7,1.7a1,1,0,0,0,1.4,0,1,1,0,0,0,0-1.3l-1.8-1.8a1,1,0,0,0-1.3,0A1,1,0,0,0,315.1,147.1Z"></path><path class="cls-7" d="M332.7,153.6a1.2,1.2,0,0,0,1.4,0l1.7-1.8a.9.9,0,0,0-1.3-1.3l-1.8,1.7A1.2,1.2,0,0,0,332.7,153.6Z"></path><path class="cls-7" d="M339.5,153.5l-.3-.2-.9-.9Z"></path><path class="cls-7" d="M228.4,165.6l-1.7,1.7h-.2l1.9-3.2h0A1,1,0,0,1,228.4,165.6Z"></path><path class="cls-7" d="M233.4,160.6l-1.7,1.7a1,1,0,0,1-1.4,0,.8.8,0,0,1-.2-.8h0a4.3,4.3,0,0,0,.4-.7l1.6-1.5a.9.9,0,1,1,1.3,1.3Z"></path><path class="cls-7" d="M230.1,165.3l1.8,1.8a1,1,0,0,0,1.3,0,1,1,0,0,0,0-1.4l-1.8-1.7a.9.9,0,0,0-1.3,0A1,1,0,0,0,230.1,165.3Z"></path><path class="cls-7" d="M243.3,167.3a.9.9,0,0,0,1.3,0l1.7-1.7a1,1,0,0,0,0-1.4,1,1,0,0,0-1.3,0l-1.7,1.8A.9.9,0,0,0,243.3,167.3Z"></path><path class="cls-7" d="M248.2,162.3a1,1,0,0,0,1.4,0l1.7-1.7a.9.9,0,1,0-1.3-1.3l-1.8,1.7A1,1,0,0,0,248.2,162.3Z"></path><path class="cls-7" d="M248,165.3l1.8,1.8a1,1,0,0,0,1.3,0,1.2,1.2,0,0,0,0-1.4l-1.8-1.7a.9.9,0,0,0-1.3,1.3Z"></path><path class="cls-7" d="M243.5,160.8l1.7,1.8a1,1,0,0,0,1.4-1.4l-1.8-1.7a.9.9,0,0,0-1.3,1.3Z"></path><path class="cls-7" d="M261.2,167.3a.9.9,0,0,0,1.3,0l1.7-1.7a1,1,0,0,0,0-1.4,1,1,0,0,0-1.3,0l-1.7,1.8A.9.9,0,0,0,261.2,167.3Z"></path><path class="cls-7" d="M266.1,162.3a1,1,0,0,0,1.4,0l1.7-1.7a.9.9,0,0,0-1.3-1.3l-1.8,1.7A1,1,0,0,0,266.1,162.3Z"></path><path class="cls-7" d="M265.9,165.3l1.8,1.8a1,1,0,0,0,1.3,0,1.2,1.2,0,0,0,0-1.4l-1.8-1.7a.9.9,0,1,0-1.3,1.3Z"></path><path class="cls-7" d="M261.4,160.8l1.7,1.8a1,1,0,0,0,1.4-1.4l-1.8-1.7a.9.9,0,1,0-1.3,1.3Z"></path><path class="cls-7" d="M279.1,167.3a.9.9,0,0,0,1.3,0l1.7-1.7a1,1,0,0,0,0-1.4,1,1,0,0,0-1.3,0l-1.7,1.8A.9.9,0,0,0,279.1,167.3Z"></path><path class="cls-7" d="M284,162.3a1,1,0,0,0,1.4,0l1.7-1.7a.9.9,0,1,0-1.3-1.3L284,161A1,1,0,0,0,284,162.3Z"></path><path class="cls-7" d="M283.8,165.3l1.8,1.8a1,1,0,0,0,1.3,0,1.2,1.2,0,0,0,0-1.4l-1.8-1.7a.9.9,0,0,0-1.3,1.3Z"></path><path class="cls-7" d="M279.3,160.8l1.7,1.8a1,1,0,0,0,1.4-1.4l-1.8-1.7a.9.9,0,0,0-1.3,1.3Z"></path><path class="cls-7" d="M297,167.3a.9.9,0,0,0,1.3,0l1.7-1.7a1,1,0,0,0,0-1.4,1,1,0,0,0-1.3,0L297,166A.9.9,0,0,0,297,167.3Z"></path><path class="cls-7" d="M301.9,162.3a1,1,0,0,0,1.4,0l1.7-1.7a.9.9,0,1,0-1.3-1.3l-1.8,1.7A1,1,0,0,0,301.9,162.3Z"></path><path class="cls-7" d="M301.7,165.3l1.7,1.8a1,1,0,1,0,1.4-1.4L303,164a.9.9,0,0,0-1.3,1.3Z"></path><path class="cls-7" d="M297.2,160.8l1.7,1.8a1,1,0,1,0,1.4-1.4l-1.8-1.7a.9.9,0,0,0-1.3,1.3Z"></path><path class="cls-7" d="M314.8,167.3a1,1,0,0,0,1.4,0l1.7-1.7a1,1,0,0,0,0-1.4,1,1,0,0,0-1.3,0l-1.8,1.8A1,1,0,0,0,314.8,167.3Z"></path><path class="cls-7" d="M319.8,162.3a.9.9,0,0,0,1.3,0l1.8-1.7a.9.9,0,1,0-1.3-1.3l-1.8,1.7A1,1,0,0,0,319.8,162.3Z"></path><path class="cls-7" d="M319.6,165.3l1.7,1.8a1,1,0,0,0,1.4-1.4l-1.8-1.7a.9.9,0,0,0-1.3,1.3Z"></path><path class="cls-7" d="M315.1,160.8l1.7,1.8a1,1,0,0,0,1.4-1.4l-1.8-1.7a.9.9,0,0,0-1.3,1.3Z"></path><path class="cls-7" d="M332.7,167.3a1,1,0,0,0,1.4,0l1.7-1.7a1,1,0,0,0,0-1.4,1,1,0,0,0-1.3,0l-1.8,1.8A1,1,0,0,0,332.7,167.3Z"></path><path class="cls-7" d="M337.7,162.3a.9.9,0,0,0,1.3,0l1.8-1.7a.9.9,0,0,0-1.3-1.3l-1.8,1.7A1,1,0,0,0,337.7,162.3Z"></path><path class="cls-7" d="M337.5,165.3l1.7,1.8a1,1,0,0,0,1.4-1.4l-1.8-1.7a.9.9,0,1,0-1.3,1.3Z"></path><path class="cls-7" d="M333,160.8l1.7,1.8a1,1,0,0,0,1.3,0,1,1,0,0,0,0-1.4l-1.7-1.7a.9.9,0,1,0-1.3,1.3Z"></path><path class="cls-7" d="M225.4,181.1a1,1,0,0,0,1.3,0l1.7-1.8a.9.9,0,0,0-1.3-1.3l-1.7,1.7A1,1,0,0,0,225.4,181.1Z"></path><path class="cls-7" d="M230.3,176.1a1.2,1.2,0,0,0,1.4,0l1.7-1.8a.9.9,0,0,0-1.3-1.3l-1.8,1.8A1,1,0,0,0,230.3,176.1Z"></path><path class="cls-7" d="M230.1,179.1l1.8,1.7a.9.9,0,1,0,1.3-1.3l-1.8-1.8a1,1,0,0,0-1.3,0A1.2,1.2,0,0,0,230.1,179.1Z"></path><path class="cls-7" d="M225.6,174.6l1.8,1.7a.9.9,0,0,0,1.3,0,1.1,1.1,0,0,0,0-1.3l-1.8-1.8a1,1,0,0,0-1.3,0A1,1,0,0,0,225.6,174.6Z"></path><path class="cls-7" d="M243.3,181.1a1,1,0,0,0,1.3,0l1.7-1.8A.9.9,0,0,0,245,178l-1.7,1.7A1,1,0,0,0,243.3,181.1Z"></path><path class="cls-7" d="M248.2,176.1a1.2,1.2,0,0,0,1.4,0l1.7-1.8A.9.9,0,0,0,250,173l-1.8,1.8A1,1,0,0,0,248.2,176.1Z"></path><path class="cls-7" d="M248,179.1l1.8,1.7a.9.9,0,0,0,1.3,0,1,1,0,0,0,0-1.3l-1.8-1.8a1,1,0,0,0-1.3,0A1,1,0,0,0,248,179.1Z"></path><path class="cls-7" d="M243.5,174.6l1.7,1.7a1,1,0,0,0,1.4,0,1.1,1.1,0,0,0,0-1.3l-1.8-1.8a1,1,0,0,0-1.3,0A1,1,0,0,0,243.5,174.6Z"></path><path class="cls-7" d="M261.2,181.1a1,1,0,0,0,1.3,0l1.7-1.8a.9.9,0,0,0-1.3-1.3l-1.7,1.7A1,1,0,0,0,261.2,181.1Z"></path><path class="cls-7" d="M266.1,176.1a1.2,1.2,0,0,0,1.4,0l1.7-1.8a.9.9,0,0,0-1.3-1.3l-1.8,1.8A1,1,0,0,0,266.1,176.1Z"></path><path class="cls-7" d="M265.9,179.1l1.8,1.7a.9.9,0,0,0,1.3,0,1,1,0,0,0,0-1.3l-1.8-1.8a1,1,0,0,0-1.3,0A1,1,0,0,0,265.9,179.1Z"></path><path class="cls-7" d="M261.4,174.6l1.7,1.7a1,1,0,0,0,1.4,0,1.1,1.1,0,0,0,0-1.3l-1.8-1.8a1,1,0,0,0-1.3,0A1,1,0,0,0,261.4,174.6Z"></path><path class="cls-7" d="M279.1,181.1a1,1,0,0,0,1.3,0l1.7-1.8a.9.9,0,1,0-1.3-1.3l-1.7,1.7A1,1,0,0,0,279.1,181.1Z"></path><path class="cls-7" d="M284,176.1a1.2,1.2,0,0,0,1.4,0l1.7-1.8a.9.9,0,1,0-1.3-1.3l-1.8,1.8A1,1,0,0,0,284,176.1Z"></path><path class="cls-7" d="M283.8,179.1l1.8,1.7a.9.9,0,0,0,1.3,0,1,1,0,0,0,0-1.3l-1.8-1.8a1,1,0,0,0-1.3,0A1,1,0,0,0,283.8,179.1Z"></path><path class="cls-7" d="M279.3,174.6l1.7,1.7a1,1,0,0,0,1.4,0,1.1,1.1,0,0,0,0-1.3l-1.8-1.8a1.1,1.1,0,0,0-1.3,0A1,1,0,0,0,279.3,174.6Z"></path><path class="cls-7" d="M297,181.1a1,1,0,0,0,1.3,0l1.7-1.8a.9.9,0,1,0-1.3-1.3l-1.7,1.7A1,1,0,0,0,297,181.1Z"></path><path class="cls-7" d="M301.9,176.1a1.2,1.2,0,0,0,1.4,0l1.7-1.8a.9.9,0,1,0-1.3-1.3l-1.8,1.8A1,1,0,0,0,301.9,176.1Z"></path><path class="cls-7" d="M301.7,179.1l1.7,1.7a1,1,0,0,0,1.4,0,1,1,0,0,0,0-1.3l-1.8-1.8a1,1,0,0,0-1.3,0A1,1,0,0,0,301.7,179.1Z"></path><path class="cls-7" d="M297.2,174.6l1.7,1.7a1,1,0,0,0,1.4,0,1.1,1.1,0,0,0,0-1.3l-1.8-1.8a1,1,0,0,0-1.3,0A1,1,0,0,0,297.2,174.6Z"></path><path class="cls-7" d="M314.8,181.1a1.2,1.2,0,0,0,1.4,0l1.7-1.8a.9.9,0,0,0-1.3-1.3l-1.8,1.7A1.2,1.2,0,0,0,314.8,181.1Z"></path><path class="cls-7" d="M319.8,176.1a1,1,0,0,0,1.3,0l1.8-1.8a.9.9,0,0,0-1.3-1.3l-1.8,1.8A1,1,0,0,0,319.8,176.1Z"></path><path class="cls-7" d="M319.6,179.1l1.7,1.7a1,1,0,0,0,1.4,0,1,1,0,0,0,0-1.3l-1.8-1.8a1,1,0,0,0-1.3,0A1,1,0,0,0,319.6,179.1Z"></path><path class="cls-7" d="M315.1,174.6l1.7,1.7a1,1,0,0,0,1.4,0,1.1,1.1,0,0,0,0-1.3l-1.8-1.8a1,1,0,0,0-1.3,0A1,1,0,0,0,315.1,174.6Z"></path><path class="cls-7" d="M332.7,181.1a1.2,1.2,0,0,0,1.4,0l1.7-1.8a.9.9,0,0,0-1.3-1.3l-1.8,1.7A1.2,1.2,0,0,0,332.7,181.1Z"></path><path class="cls-7" d="M337.7,176.1a1,1,0,0,0,1.3,0l1.8-1.8a.9.9,0,0,0-1.3-1.3l-1.8,1.8A1,1,0,0,0,337.7,176.1Z"></path><path class="cls-7" d="M337.5,179.1l1.7,1.7a1,1,0,0,0,1.4,0,1,1,0,0,0,0-1.3l-1.8-1.8a1.1,1.1,0,0,0-1.3,0A1,1,0,0,0,337.5,179.1Z"></path><path class="cls-7" d="M333,174.6l1.7,1.7A.9.9,0,1,0,336,175l-1.7-1.8a1,1,0,0,0-1.3,0A1,1,0,0,0,333,174.6Z"></path><path class="cls-7" d="M353.5,179.6l-1.5,1.5a1,1,0,0,1-1.4-1.4l1.8-1.7.6-.3C353.2,178.3,353.3,178.9,353.5,179.6Z"></path><path class="cls-7" d="M352.7,176.4h-.1l-1.7-1.7a.9.9,0,0,1,.9-1.6C352.1,173.9,352.4,175.1,352.7,176.4Z"></path><path class="cls-7" d="M233.4,188.1l-1.6,1.6-1.6-1.1h.1l1.8-1.7a.9.9,0,1,1,1.3,1.3Z"></path><path class="cls-7" d="M243.3,194.8a.9.9,0,0,0,1.3,0l1.7-1.7a1,1,0,0,0,0-1.4,1,1,0,0,0-1.3,0l-1.7,1.8A.9.9,0,0,0,243.3,194.8Z"></path><path class="cls-7" d="M248.2,189.8a1,1,0,0,0,1.4,0l1.7-1.7a.9.9,0,1,0-1.3-1.3l-1.8,1.7A1,1,0,0,0,248.2,189.8Z"></path><path class="cls-7" d="M248,192.8l1.8,1.8a.9.9,0,0,0,1.3-1.3l-1.8-1.8a.9.9,0,0,0-1.3,1.3Z"></path><path class="cls-7" d="M243.5,188.3l1.7,1.8a1,1,0,0,0,1.4-1.4l-1.8-1.7a.9.9,0,0,0-1.3,1.3Z"></path><path class="cls-7" d="M261.2,194.8a.9.9,0,0,0,1.3,0l1.7-1.7a1,1,0,0,0,0-1.4,1,1,0,0,0-1.3,0l-1.7,1.8A.9.9,0,0,0,261.2,194.8Z"></path><path class="cls-7" d="M266.1,189.8a1,1,0,0,0,1.4,0l1.7-1.7a.9.9,0,0,0-1.3-1.3l-1.8,1.7A1,1,0,0,0,266.1,189.8Z"></path><path class="cls-7" d="M265.9,192.8l1.8,1.8a.9.9,0,1,0,1.3-1.3l-1.8-1.8a.9.9,0,1,0-1.3,1.3Z"></path><path class="cls-7" d="M261.4,188.3l1.7,1.8a1,1,0,0,0,1.4-1.4l-1.8-1.7a.9.9,0,1,0-1.3,1.3Z"></path><path class="cls-7" d="M279.1,194.8a.9.9,0,0,0,1.3,0l1.7-1.7a1,1,0,0,0,0-1.4,1,1,0,0,0-1.3,0l-1.7,1.8A.9.9,0,0,0,279.1,194.8Z"></path><path class="cls-7" d="M284,189.8a1,1,0,0,0,1.4,0l1.7-1.7a.9.9,0,1,0-1.3-1.3l-1.8,1.7A1,1,0,0,0,284,189.8Z"></path><path class="cls-7" d="M283.8,192.8l1.8,1.8a.9.9,0,0,0,1.3-1.3l-1.8-1.8a.9.9,0,0,0-1.3,1.3Z"></path><path class="cls-7" d="M279.3,188.3l1.7,1.8a1,1,0,0,0,1.4-1.4l-1.8-1.7a.9.9,0,0,0-1.3,1.3Z"></path><path class="cls-7" d="M297,194.8a.9.9,0,0,0,1.3,0l1.7-1.7a1,1,0,0,0,0-1.4,1,1,0,0,0-1.3,0l-1.7,1.8A.9.9,0,0,0,297,194.8Z"></path><path class="cls-7" d="M301.9,189.8a1,1,0,0,0,1.4,0l1.7-1.7a.9.9,0,1,0-1.3-1.3l-1.8,1.7A1,1,0,0,0,301.9,189.8Z"></path><path class="cls-7" d="M301.7,192.8l1.7,1.8a1.2,1.2,0,0,0,1.4,0,1,1,0,0,0,0-1.3l-1.8-1.8a.9.9,0,0,0-1.3,1.3Z"></path><path class="cls-7" d="M297.2,188.3l1.7,1.8a1,1,0,1,0,1.4-1.4l-1.8-1.7a.9.9,0,0,0-1.3,1.3Z"></path><path class="cls-7" d="M314.8,194.8a1,1,0,0,0,1.4,0l1.7-1.7a1,1,0,0,0,0-1.4,1,1,0,0,0-1.3,0l-1.8,1.8A1,1,0,0,0,314.8,194.8Z"></path><path class="cls-7" d="M319.8,189.8a.9.9,0,0,0,1.3,0l1.8-1.7a.9.9,0,1,0-1.3-1.3l-1.8,1.7A1,1,0,0,0,319.8,189.8Z"></path><path class="cls-7" d="M319.6,192.8l1.7,1.8a1.2,1.2,0,0,0,1.4,0,1,1,0,0,0,0-1.3l-1.8-1.8a.9.9,0,0,0-1.3,1.3Z"></path><path class="cls-7" d="M315.1,188.3l1.7,1.8a1,1,0,0,0,1.4-1.4l-1.8-1.7a.9.9,0,0,0-1.3,1.3Z"></path><path class="cls-7" d="M332.7,194.8a1,1,0,0,0,1.4,0l1.7-1.7a1,1,0,0,0,0-1.4,1,1,0,0,0-1.3,0l-1.8,1.8A1,1,0,0,0,332.7,194.8Z"></path><path class="cls-7" d="M337.7,189.8a.9.9,0,0,0,1.3,0l1.8-1.7a.9.9,0,0,0-1.3-1.3l-1.8,1.7A1,1,0,0,0,337.7,189.8Z"></path><path class="cls-7" d="M337.5,192.8l1.7,1.8a1.2,1.2,0,0,0,1.4,0,1,1,0,0,0,0-1.3l-1.8-1.8a.9.9,0,1,0-1.3,1.3Z"></path><path class="cls-7" d="M333,188.3l1.7,1.8a1,1,0,0,0,1.3,0,1,1,0,0,0,0-1.4l-1.7-1.7a.9.9,0,1,0-1.3,1.3Z"></path><path class="cls-7" d="M350.6,194.8a1,1,0,0,0,1.4,0l1.7-1.7a1,1,0,0,0,0-1.4,1.1,1.1,0,0,0-1.3,0l-1.8,1.8A1,1,0,0,0,350.6,194.8Z"></path><path class="cls-7" d="M356,193.4l-.6-.6a.9.9,0,0,1,0-1.3l.3-.2Z"></path><path class="cls-7" d="M350.9,188.3l1.7,1.8a1,1,0,0,0,1.3,0,1,1,0,0,0,0-1.4l-1.7-1.7a.9.9,0,1,0-1.3,1.3Z"></path><path class="cls-7" d="M243.3,208.6a1,1,0,0,0,1.3,0l1.7-1.8a.9.9,0,0,0-1.3-1.3l-1.7,1.7A1,1,0,0,0,243.3,208.6Z"></path><path class="cls-7" d="M248.2,203.6a1.2,1.2,0,0,0,1.4,0l1.7-1.8a.9.9,0,0,0-1.3-1.3l-1.8,1.8A1,1,0,0,0,248.2,203.6Z"></path><path class="cls-7" d="M248,206.6l1.8,1.7a.9.9,0,0,0,1.3,0,1,1,0,0,0,0-1.3l-1.8-1.7a.9.9,0,1,0-1.3,1.3Z"></path><path class="cls-7" d="M243.5,202.1l1.7,1.7a1,1,0,0,0,1.4,0,1.1,1.1,0,0,0,0-1.3l-1.8-1.8a1,1,0,0,0-1.3,0A1,1,0,0,0,243.5,202.1Z"></path><path class="cls-7" d="M261.2,208.6a1,1,0,0,0,1.3,0l1.7-1.8a.9.9,0,0,0-1.3-1.3l-1.7,1.7A1,1,0,0,0,261.2,208.6Z"></path><path class="cls-7" d="M266.1,203.6a1.2,1.2,0,0,0,1.4,0l1.7-1.8a.9.9,0,0,0-1.3-1.3l-1.8,1.8A1,1,0,0,0,266.1,203.6Z"></path><path class="cls-7" d="M265.9,206.6l1.8,1.7a.9.9,0,0,0,1.3,0,1,1,0,0,0,0-1.3l-1.8-1.7a.9.9,0,1,0-1.3,1.3Z"></path><path class="cls-7" d="M261.4,202.1l1.7,1.7a1,1,0,0,0,1.4,0,1.1,1.1,0,0,0,0-1.3l-1.8-1.8a1,1,0,0,0-1.3,0A1,1,0,0,0,261.4,202.1Z"></path><path class="cls-7" d="M279.1,208.6a1,1,0,0,0,1.3,0l1.7-1.8a.9.9,0,1,0-1.3-1.3l-1.7,1.7A1,1,0,0,0,279.1,208.6Z"></path><path class="cls-7" d="M284,203.6a1.2,1.2,0,0,0,1.4,0l1.7-1.8a.9.9,0,1,0-1.3-1.3l-1.8,1.8A1,1,0,0,0,284,203.6Z"></path><path class="cls-7" d="M283.8,206.6l1.8,1.7a.9.9,0,0,0,1.3,0,1,1,0,0,0,0-1.3l-1.8-1.7a.9.9,0,0,0-1.3,1.3Z"></path><path class="cls-7" d="M279.3,202.1l1.7,1.7a1,1,0,0,0,1.4,0,1.1,1.1,0,0,0,0-1.3l-1.8-1.8a1.1,1.1,0,0,0-1.3,0A1,1,0,0,0,279.3,202.1Z"></path><path class="cls-7" d="M297,208.6a1,1,0,0,0,1.3,0l1.7-1.8a.9.9,0,1,0-1.3-1.3l-1.7,1.7A1,1,0,0,0,297,208.6Z"></path><path class="cls-7" d="M301.9,203.6a1.2,1.2,0,0,0,1.4,0l1.7-1.8a.9.9,0,1,0-1.3-1.3l-1.8,1.8A1,1,0,0,0,301.9,203.6Z"></path><path class="cls-7" d="M301.7,206.6l1.7,1.7a1,1,0,0,0,1.4,0,1,1,0,0,0,0-1.3l-1.8-1.7a.9.9,0,0,0-1.3,1.3Z"></path><path class="cls-7" d="M297.2,202.1l1.7,1.7a1,1,0,0,0,1.4,0,1.1,1.1,0,0,0,0-1.3l-1.8-1.8a1,1,0,0,0-1.3,0A1,1,0,0,0,297.2,202.1Z"></path><path class="cls-7" d="M314.8,208.6a1.2,1.2,0,0,0,1.4,0l1.7-1.8a.9.9,0,0,0-1.3-1.3l-1.8,1.7A1.2,1.2,0,0,0,314.8,208.6Z"></path><path class="cls-7" d="M319.8,203.6a1,1,0,0,0,1.3,0l1.8-1.8a.9.9,0,0,0-1.3-1.3l-1.8,1.8A1,1,0,0,0,319.8,203.6Z"></path><path class="cls-7" d="M319.6,206.6l1.7,1.7a1,1,0,0,0,1.4,0,1,1,0,0,0,0-1.3l-1.8-1.7a.9.9,0,1,0-1.3,1.3Z"></path><path class="cls-7" d="M315.1,202.1l1.7,1.7a1,1,0,0,0,1.4,0,1.1,1.1,0,0,0,0-1.3l-1.8-1.8a1,1,0,0,0-1.3,0A1,1,0,0,0,315.1,202.1Z"></path><path class="cls-7" d="M332.7,208.6a1.2,1.2,0,0,0,1.4,0l1.7-1.8a.9.9,0,0,0-1.3-1.3l-1.8,1.7A1.2,1.2,0,0,0,332.7,208.6Z"></path><path class="cls-7" d="M337.7,203.6a1,1,0,0,0,1.3,0l1.8-1.8a.9.9,0,0,0-1.3-1.3l-1.8,1.8A1,1,0,0,0,337.7,203.6Z"></path><path class="cls-7" d="M337.5,206.6l1.7,1.7a1,1,0,0,0,1.4,0,1,1,0,0,0,0-1.3l-1.8-1.7a.9.9,0,1,0-1.3,1.3Z"></path><path class="cls-7" d="M333,202.1l1.7,1.7a.9.9,0,1,0,1.3-1.3l-1.7-1.8a1,1,0,0,0-1.3,0A1,1,0,0,0,333,202.1Z"></path><path class="cls-7" d="M350.6,208.6a1.2,1.2,0,0,0,1.4,0l1.7-1.8a.9.9,0,0,0-1.3-1.3l-1.8,1.7A1.2,1.2,0,0,0,350.6,208.6Z"></path><path class="cls-7" d="M357.2,203.3l-.3.3a.9.9,0,0,1-1.3-1.3l1.4-1.4A19.4,19.4,0,0,0,357.2,203.3Z"></path><path class="cls-7" d="M357.6,208.6l-.5-.3-1.7-1.7a.9.9,0,1,1,1.3-1.3l.7.7C357.5,206.8,357.5,207.7,357.6,208.6Z"></path><path class="cls-7" d="M350.9,202.1l1.7,1.7a.9.9,0,0,0,1.3-1.3l-1.7-1.8a1,1,0,0,0-1.3,0A1,1,0,0,0,350.9,202.1Z"></path><path class="cls-7" d="M233.4,215.6l-.9.9c.1-.8.3-1.7.4-2.5a.5.5,0,0,1,.5.3A.9.9,0,0,1,233.4,215.6Z"></path><path class="cls-7" d="M233.2,222.1a1,1,0,0,1-1.3,0l-.3-.3c.1-.7.3-1.5.4-2.3l1.2,1.3A.9.9,0,0,1,233.2,222.1Z"></path><path class="cls-7" d="M243.3,222.3a.9.9,0,0,0,1.3,0l1.7-1.7a1,1,0,0,0,0-1.4,1,1,0,0,0-1.3,0l-1.7,1.8A.9.9,0,0,0,243.3,222.3Z"></path><path class="cls-7" d="M248.2,217.3a1,1,0,0,0,1.4,0l1.7-1.7a.9.9,0,1,0-1.3-1.3l-1.8,1.7A1,1,0,0,0,248.2,217.3Z"></path><path class="cls-7" d="M248,220.3l1.8,1.8a.9.9,0,0,0,1.3-1.3l-1.8-1.8a.9.9,0,0,0-1.3,1.3Z"></path><path class="cls-7" d="M243.5,215.8l1.7,1.8a1,1,0,0,0,1.4-1.4l-1.8-1.7a.9.9,0,0,0-1.3,1.3Z"></path><path class="cls-7" d="M261.2,222.3a.9.9,0,0,0,1.3,0l1.7-1.7a1,1,0,0,0,0-1.4,1,1,0,0,0-1.3,0l-1.7,1.8A.9.9,0,0,0,261.2,222.3Z"></path><path class="cls-7" d="M266.1,217.3a1,1,0,0,0,1.4,0l1.7-1.7a.9.9,0,0,0-1.3-1.3l-1.8,1.7A1,1,0,0,0,266.1,217.3Z"></path><path class="cls-7" d="M265.9,220.3l1.8,1.8a.9.9,0,1,0,1.3-1.3l-1.8-1.8a.9.9,0,1,0-1.3,1.3Z"></path><path class="cls-7" d="M261.4,215.8l1.7,1.8a1,1,0,0,0,1.4-1.4l-1.8-1.7a.9.9,0,1,0-1.3,1.3Z"></path><path class="cls-7" d="M279.1,222.3a.9.9,0,0,0,1.3,0l1.7-1.7a1,1,0,0,0,0-1.4,1,1,0,0,0-1.3,0l-1.7,1.8A.9.9,0,0,0,279.1,222.3Z"></path><path class="cls-7" d="M284,217.3a1,1,0,0,0,1.4,0l1.7-1.7a.9.9,0,1,0-1.3-1.3L284,216A1,1,0,0,0,284,217.3Z"></path><path class="cls-7" d="M283.8,220.3l1.8,1.8a.9.9,0,0,0,1.3-1.3l-1.8-1.8a.9.9,0,0,0-1.3,1.3Z"></path><path class="cls-7" d="M279.3,215.8l1.7,1.8a1,1,0,0,0,1.4-1.4l-1.8-1.7a.9.9,0,0,0-1.3,1.3Z"></path><path class="cls-7" d="M297,222.3a.9.9,0,0,0,1.3,0l1.7-1.7a1,1,0,0,0,0-1.4,1,1,0,0,0-1.3,0L297,221A.9.9,0,0,0,297,222.3Z"></path><path class="cls-7" d="M301.9,217.3a1,1,0,0,0,1.4,0l1.7-1.7a.9.9,0,1,0-1.3-1.3l-1.8,1.7A1,1,0,0,0,301.9,217.3Z"></path><path class="cls-7" d="M301.7,220.3l1.7,1.8a1.2,1.2,0,0,0,1.4,0,1,1,0,0,0,0-1.3L303,219a.9.9,0,0,0-1.3,1.3Z"></path><path class="cls-7" d="M297.2,215.8l1.7,1.8a1,1,0,1,0,1.4-1.4l-1.8-1.7a.9.9,0,0,0-1.3,1.3Z"></path><path class="cls-7" d="M314.8,222.3a1,1,0,0,0,1.4,0l1.7-1.7a1,1,0,0,0,0-1.4,1,1,0,0,0-1.3,0l-1.8,1.8A1.1,1.1,0,0,0,314.8,222.3Z"></path><path class="cls-7" d="M319.8,217.3a.9.9,0,0,0,1.3,0l1.8-1.7a.9.9,0,1,0-1.3-1.3l-1.8,1.7A1,1,0,0,0,319.8,217.3Z"></path><path class="cls-7" d="M319.6,220.3l1.7,1.8a1.2,1.2,0,0,0,1.4,0,1,1,0,0,0,0-1.3l-1.8-1.8a.9.9,0,0,0-1.3,1.3Z"></path><path class="cls-7" d="M315.1,215.8l1.7,1.8a1,1,0,0,0,1.4-1.4l-1.8-1.7a.9.9,0,0,0-1.3,1.3Z"></path><path class="cls-7" d="M340.8,215.6l-.7.7-2.6.2c0-.2.1-.3.2-.5l1.8-1.7a.9.9,0,0,1,1.3,1.3Z"></path><path class="cls-7" d="M336.3,216.6l-2.3.2-1-1a.9.9,0,1,1,1.3-1.3l1.7,1.7C336.2,216.3,336.2,216.5,336.3,216.6Z"></path><path class="cls-7" d="M357.8,214.9h-1.2l.8-.7c.1-.2.2-.2.4-.3Z"></path><path class="cls-7" d="M353,215.3l-2.3.2a.8.8,0,0,1,.2-1,.9.9,0,0,1,1.3,0Z"></path><path class="cls-7" d="M233.4,229.3l-1.7,1.8a1.2,1.2,0,0,1-1.4,0c-.1-.1-.1-.3-.2-.4a2.5,2.5,0,0,0,.1-.8h.1l1.8-1.8a.9.9,0,0,1,1.3,1.3Z"></path><path class="cls-7" d="M230.1,234.1l1.8,1.7a.9.9,0,1,0,1.3-1.3l-1.8-1.7a.9.9,0,0,0-1.3,0A1,1,0,0,0,230.1,234.1Z"></path><path class="cls-7" d="M243.3,236.1a1,1,0,0,0,1.3,0l1.7-1.8A.9.9,0,0,0,245,233l-1.7,1.7A1,1,0,0,0,243.3,236.1Z"></path><path class="cls-7" d="M248.2,231.1a1.2,1.2,0,0,0,1.4,0l1.7-1.8A.9.9,0,0,0,250,228l-1.8,1.8A1,1,0,0,0,248.2,231.1Z"></path><path class="cls-7" d="M248,234.1l1.8,1.7a.9.9,0,0,0,1.3,0,1,1,0,0,0,0-1.3l-1.8-1.7a.9.9,0,1,0-1.3,1.3Z"></path><path class="cls-7" d="M243.5,229.6l1.7,1.7a1,1,0,0,0,1.4,0,1,1,0,0,0,0-1.3l-1.8-1.8a1,1,0,0,0-1.3,0A1,1,0,0,0,243.5,229.6Z"></path><path class="cls-7" d="M261.2,236.1a1,1,0,0,0,1.3,0l1.7-1.8a.9.9,0,0,0-1.3-1.3l-1.7,1.7A1,1,0,0,0,261.2,236.1Z"></path><path class="cls-7" d="M266.1,231.1a1.2,1.2,0,0,0,1.4,0l1.7-1.8a.9.9,0,0,0-1.3-1.3l-1.8,1.8A1,1,0,0,0,266.1,231.1Z"></path><path class="cls-7" d="M265.9,234.1l1.8,1.7a.9.9,0,0,0,1.3,0,1,1,0,0,0,0-1.3l-1.8-1.7a.9.9,0,1,0-1.3,1.3Z"></path><path class="cls-7" d="M261.4,229.6l1.7,1.7a1,1,0,0,0,1.4,0,1,1,0,0,0,0-1.3l-1.8-1.8a1,1,0,0,0-1.3,0A1,1,0,0,0,261.4,229.6Z"></path><path class="cls-7" d="M279.1,236.1a1,1,0,0,0,1.3,0l1.7-1.8a.9.9,0,1,0-1.3-1.3l-1.7,1.7A1,1,0,0,0,279.1,236.1Z"></path><path class="cls-7" d="M284,231.1a1.2,1.2,0,0,0,1.4,0l1.7-1.8a.9.9,0,1,0-1.3-1.3l-1.8,1.8A1,1,0,0,0,284,231.1Z"></path><path class="cls-7" d="M283.8,234.1l1.8,1.7a.9.9,0,0,0,1.3,0,1,1,0,0,0,0-1.3l-1.8-1.7a.9.9,0,0,0-1.3,1.3Z"></path><path class="cls-7" d="M279.3,229.6l1.7,1.7a1,1,0,0,0,1.4,0,1,1,0,0,0,0-1.3l-1.8-1.8a1.1,1.1,0,0,0-1.3,0A1,1,0,0,0,279.3,229.6Z"></path><path class="cls-7" d="M297,236.1a1,1,0,0,0,1.3,0l1.7-1.8a.9.9,0,1,0-1.3-1.3l-1.7,1.7A1,1,0,0,0,297,236.1Z"></path><path class="cls-7" d="M301.9,231.1a1.2,1.2,0,0,0,1.4,0l1.7-1.8a.9.9,0,1,0-1.3-1.3l-1.8,1.8A1,1,0,0,0,301.9,231.1Z"></path><path class="cls-7" d="M301.7,234.1l1.7,1.7a1,1,0,0,0,1.4,0,1,1,0,0,0,0-1.3l-1.8-1.7a.9.9,0,0,0-1.3,1.3Z"></path><path class="cls-7" d="M297.2,229.6l1.7,1.7a1,1,0,0,0,1.4,0,1,1,0,0,0,0-1.3l-1.8-1.8a1,1,0,0,0-1.3,0A1,1,0,0,0,297.2,229.6Z"></path><path class="cls-7" d="M314.8,236.1a1.2,1.2,0,0,0,1.4,0l1.7-1.8a.9.9,0,0,0-1.3-1.3l-1.8,1.7A1.2,1.2,0,0,0,314.8,236.1Z"></path><path class="cls-7" d="M319.8,231.1a1,1,0,0,0,1.3,0l1.8-1.8a.9.9,0,0,0-1.3-1.3l-1.8,1.8A1,1,0,0,0,319.8,231.1Z"></path><path class="cls-7" d="M319.6,234.1l1.7,1.7a1,1,0,0,0,1.4,0,1,1,0,0,0,0-1.3l-1.8-1.7a.9.9,0,1,0-1.3,1.3Z"></path><path class="cls-7" d="M315.1,229.6l1.7,1.7a1,1,0,0,0,1.4,0,1,1,0,0,0,0-1.3l-1.8-1.8a1,1,0,0,0-1.3,0A1,1,0,0,0,315.1,229.6Z"></path><path class="cls-7" d="M228.4,248.1l-1.4,1.4c.2-1,.3-2,.5-3a.9.9,0,0,1,.9,1.6Z"></path><path class="cls-7" d="M230.3,244.8a1,1,0,0,0,1.4,0l1.7-1.7a.9.9,0,1,0-1.3-1.3l-1.8,1.7A1,1,0,0,0,230.3,244.8Z"></path><path class="cls-7" d="M230.1,247.8l1.8,1.8a1,1,0,0,0,1.3,0,.9.9,0,0,0,0-1.3l-1.8-1.8a.9.9,0,0,0-1.3,0A1,1,0,0,0,230.1,247.8Z"></path><path class="cls-7" d="M228.7,245.1a1.2,1.2,0,0,1-1,.2,17,17,0,0,1,.4-2.2l.6.6A1.2,1.2,0,0,1,228.7,245.1Z"></path><path class="cls-7" d="M243.3,249.8a.9.9,0,0,0,1.3,0l1.7-1.7a1,1,0,0,0,0-1.4,1,1,0,0,0-1.3,0l-1.7,1.8A.9.9,0,0,0,243.3,249.8Z"></path><path class="cls-7" d="M248.2,244.8a1,1,0,0,0,1.4,0l1.7-1.7a.9.9,0,1,0-1.3-1.3l-1.8,1.7A1,1,0,0,0,248.2,244.8Z"></path><path class="cls-7" d="M248,247.8l1.8,1.8a.9.9,0,0,0,1.3-1.3l-1.8-1.8a.9.9,0,0,0-1.3,1.3Z"></path><path class="cls-7" d="M243.5,243.3l1.7,1.8a1,1,0,0,0,1.4-1.4l-1.8-1.7a.9.9,0,0,0-1.3,1.3Z"></path><path class="cls-7" d="M261.2,249.8a.9.9,0,0,0,1.3,0l1.7-1.7a1,1,0,0,0,0-1.4,1,1,0,0,0-1.3,0l-1.7,1.8A.9.9,0,0,0,261.2,249.8Z"></path><path class="cls-7" d="M266.1,244.8a1,1,0,0,0,1.4,0l1.7-1.7a.9.9,0,0,0-1.3-1.3l-1.8,1.7A1,1,0,0,0,266.1,244.8Z"></path><path class="cls-7" d="M265.9,247.8l1.8,1.8a.9.9,0,1,0,1.3-1.3l-1.8-1.8a.9.9,0,1,0-1.3,1.3Z"></path><path class="cls-7" d="M261.4,243.3l1.7,1.8a1,1,0,0,0,1.4-1.4l-1.8-1.7a.9.9,0,1,0-1.3,1.3Z"></path><path class="cls-7" d="M279.1,249.8a.9.9,0,0,0,1.3,0l1.7-1.7a1,1,0,0,0,0-1.4,1,1,0,0,0-1.3,0l-1.7,1.8A.9.9,0,0,0,279.1,249.8Z"></path><path class="cls-7" d="M284,244.8a1,1,0,0,0,1.4,0l1.7-1.7a.9.9,0,1,0-1.3-1.3l-1.8,1.7A1,1,0,0,0,284,244.8Z"></path><path class="cls-7" d="M283.8,247.8l1.8,1.8a.9.9,0,0,0,1.3-1.3l-1.8-1.8a.9.9,0,0,0-1.3,1.3Z"></path><path class="cls-7" d="M279.3,243.3l1.7,1.8a1,1,0,0,0,1.4-1.4l-1.8-1.7a.9.9,0,0,0-1.3,1.3Z"></path><path class="cls-7" d="M297,249.8a.9.9,0,0,0,1.3,0l1.7-1.7a1,1,0,0,0,0-1.4,1,1,0,0,0-1.3,0l-1.7,1.8A.9.9,0,0,0,297,249.8Z"></path><path class="cls-7" d="M301.9,244.8a1,1,0,0,0,1.4,0l1.7-1.7a.9.9,0,1,0-1.3-1.3l-1.8,1.7A1,1,0,0,0,301.9,244.8Z"></path><path class="cls-7" d="M301.7,247.8l1.7,1.8a1.2,1.2,0,0,0,1.4,0,1,1,0,0,0,0-1.3l-1.8-1.8a.9.9,0,0,0-1.3,1.3Z"></path><path class="cls-7" d="M297.2,243.3l1.7,1.8a1,1,0,1,0,1.4-1.4l-1.8-1.7a.9.9,0,0,0-1.3,1.3Z"></path><path class="cls-7" d="M314.8,249.8a1,1,0,0,0,1.4,0l1.7-1.7a1,1,0,0,0,0-1.4,1,1,0,0,0-1.3,0l-1.8,1.8A1.1,1.1,0,0,0,314.8,249.8Z"></path><path class="cls-7" d="M319.8,244.8a.9.9,0,0,0,1.3,0l1.8-1.7a.9.9,0,1,0-1.3-1.3l-1.8,1.7A1,1,0,0,0,319.8,244.8Z"></path><path class="cls-7" d="M319.6,247.8l1.7,1.8a1.2,1.2,0,0,0,1.4,0,1,1,0,0,0,0-1.3l-1.8-1.8a.9.9,0,0,0-1.3,1.3Z"></path><path class="cls-7" d="M315.1,243.3l1.7,1.8a1,1,0,0,0,1.4-1.4l-1.8-1.7a.9.9,0,0,0-1.3,1.3Z"></path><path class="cls-7" d="M225.4,263.6a1,1,0,0,0,1.3,0l1.7-1.8a.9.9,0,1,0-1.3-1.3l-1.7,1.7A1,1,0,0,0,225.4,263.6Z"></path><path class="cls-7" d="M230.3,258.6a1,1,0,0,0,1.4,0l1.7-1.8a.9.9,0,0,0,0-1.3,1,1,0,0,0-1.3,0l-1.8,1.8A1,1,0,0,0,230.3,258.6Z"></path><path class="cls-7" d="M230.1,261.6l1.8,1.7a.9.9,0,0,0,1.3-1.3l-1.8-1.7a.9.9,0,0,0-1.3,0A1,1,0,0,0,230.1,261.6Z"></path><path class="cls-7" d="M228.7,258.8a.9.9,0,0,1-1.3,0l-1.7-1.6.3-1.7a1,1,0,0,1,.9.2l1.8,1.8A1,1,0,0,1,228.7,258.8Z"></path><path class="cls-7" d="M243.3,263.6a1,1,0,0,0,1.3,0l1.7-1.8a.9.9,0,1,0-1.3-1.3l-1.7,1.7A1,1,0,0,0,243.3,263.6Z"></path><path class="cls-7" d="M248.2,258.6a1,1,0,0,0,1.4,0l1.7-1.8a.9.9,0,0,0,0-1.3,1,1,0,0,0-1.3,0l-1.8,1.8A1,1,0,0,0,248.2,258.6Z"></path><path class="cls-7" d="M248,261.6l1.8,1.7a.9.9,0,0,0,1.3,0,1,1,0,0,0,0-1.3l-1.8-1.7a.9.9,0,0,0-1.3,1.3Z"></path><path class="cls-7" d="M243.5,257.1l1.7,1.7a1,1,0,0,0,1.4,0,1,1,0,0,0,0-1.3l-1.8-1.8a1,1,0,0,0-1.3,0A1,1,0,0,0,243.5,257.1Z"></path><path class="cls-7" d="M261.2,263.6a1,1,0,0,0,1.3,0l1.7-1.8a.9.9,0,0,0-1.3-1.3l-1.7,1.7A1,1,0,0,0,261.2,263.6Z"></path><path class="cls-7" d="M266.1,258.6a1,1,0,0,0,1.4,0l1.7-1.8a.9.9,0,0,0,0-1.3,1.1,1.1,0,0,0-1.3,0l-1.8,1.8A1,1,0,0,0,266.1,258.6Z"></path><path class="cls-7" d="M265.9,261.6l1.8,1.7a.9.9,0,0,0,1.3,0,1,1,0,0,0,0-1.3l-1.8-1.7a.9.9,0,0,0-1.3,1.3Z"></path><path class="cls-7" d="M261.4,257.1l1.7,1.7a1,1,0,0,0,1.4,0,1,1,0,0,0,0-1.3l-1.8-1.8a1,1,0,0,0-1.3,0A1,1,0,0,0,261.4,257.1Z"></path><path class="cls-7" d="M279.1,263.6a1,1,0,0,0,1.3,0l1.7-1.8a.9.9,0,1,0-1.3-1.3l-1.7,1.7A1,1,0,0,0,279.1,263.6Z"></path><path class="cls-7" d="M284,258.6a1,1,0,0,0,1.4,0l1.7-1.8a.9.9,0,0,0,0-1.3,1.1,1.1,0,0,0-1.3,0l-1.8,1.8A1,1,0,0,0,284,258.6Z"></path><path class="cls-7" d="M283.8,261.6l1.8,1.7a.9.9,0,0,0,1.3,0,1,1,0,0,0,0-1.3l-1.8-1.7a.9.9,0,0,0-1.3,1.3Z"></path><path class="cls-7" d="M279.3,257.1l1.7,1.7a1,1,0,0,0,1.4,0,1,1,0,0,0,0-1.3l-1.8-1.8a1.1,1.1,0,0,0-1.3,0A1,1,0,0,0,279.3,257.1Z"></path><path class="cls-7" d="M297,263.6a1,1,0,0,0,1.3,0l1.7-1.8a.9.9,0,1,0-1.3-1.3l-1.7,1.7A1,1,0,0,0,297,263.6Z"></path><path class="cls-7" d="M301.9,258.6a1,1,0,0,0,1.4,0l1.7-1.8a.9.9,0,0,0,0-1.3,1,1,0,0,0-1.3,0l-1.8,1.8A1,1,0,0,0,301.9,258.6Z"></path><path class="cls-7" d="M301.7,261.6l1.7,1.7a1,1,0,0,0,1.4,0,1,1,0,0,0,0-1.3l-1.8-1.7a.9.9,0,0,0-1.3,1.3Z"></path><path class="cls-7" d="M297.2,257.1l1.7,1.7a1,1,0,0,0,1.4,0,1,1,0,0,0,0-1.3l-1.8-1.8a1,1,0,0,0-1.3,0A1,1,0,0,0,297.2,257.1Z"></path><path class="cls-7" d="M314.8,263.6a1.2,1.2,0,0,0,1.4,0l1.7-1.8a.9.9,0,1,0-1.3-1.3l-1.8,1.7A1.2,1.2,0,0,0,314.8,263.6Z"></path><path class="cls-7" d="M319.8,258.6a.9.9,0,0,0,1.3,0l1.8-1.8a.9.9,0,0,0,0-1.3,1,1,0,0,0-1.3,0l-1.8,1.8A1,1,0,0,0,319.8,258.6Z"></path><path class="cls-7" d="M319.6,261.6l1.7,1.7a1,1,0,0,0,1.4,0,1,1,0,0,0,0-1.3l-1.8-1.7a.9.9,0,0,0-1.3,1.3Z"></path><path class="cls-7" d="M315.1,257.1l1.7,1.7a1,1,0,0,0,1.4,0,1,1,0,0,0,0-1.3l-1.8-1.8a1,1,0,0,0-1.3,0A1,1,0,0,0,315.1,257.1Z"></path><path class="cls-7" d="M225.4,277.3a.9.9,0,0,0,1.3,0l1.7-1.7a1,1,0,0,0,0-1.4,1,1,0,0,0-1.3,0l-1.7,1.8A.9.9,0,0,0,225.4,277.3Z"></path><path class="cls-7" d="M230.3,272.3a1,1,0,0,0,1.4,0l1.7-1.7a.9.9,0,0,0-1.3-1.3l-1.8,1.7A1,1,0,0,0,230.3,272.3Z"></path><path class="cls-7" d="M230.1,275.3l1.8,1.8a.9.9,0,1,0,1.3-1.3l-1.8-1.8a.9.9,0,0,0-1.3,0A1,1,0,0,0,230.1,275.3Z"></path><path class="cls-7" d="M225.6,270.8l1.8,1.8a.9.9,0,1,0,1.3-1.3l-1.8-1.8a.9.9,0,1,0-1.3,1.3Z"></path><path class="cls-7" d="M243.3,277.3a.9.9,0,0,0,1.3,0l1.7-1.7a1,1,0,0,0,0-1.4,1,1,0,0,0-1.3,0l-1.7,1.8A.9.9,0,0,0,243.3,277.3Z"></path><path class="cls-7" d="M248.2,272.3a1,1,0,0,0,1.4,0l1.7-1.7a.9.9,0,0,0-1.3-1.3l-1.8,1.7A1,1,0,0,0,248.2,272.3Z"></path><path class="cls-7" d="M248,275.3l1.8,1.8a.9.9,0,0,0,1.3,0,1,1,0,0,0,0-1.3l-1.8-1.8a.9.9,0,1,0-1.3,1.3Z"></path><path class="cls-7" d="M243.5,270.8l1.7,1.8a1.2,1.2,0,0,0,1.4,0,1,1,0,0,0,0-1.3l-1.8-1.8a.9.9,0,1,0-1.3,1.3Z"></path><path class="cls-7" d="M261.2,277.3a.9.9,0,0,0,1.3,0l1.7-1.7a1,1,0,0,0,0-1.4,1,1,0,0,0-1.3,0l-1.7,1.8A.9.9,0,0,0,261.2,277.3Z"></path><path class="cls-7" d="M266.1,272.3a1,1,0,0,0,1.4,0l1.7-1.7a.9.9,0,0,0-1.3-1.3l-1.8,1.7A1,1,0,0,0,266.1,272.3Z"></path><path class="cls-7" d="M265.9,275.3l1.8,1.8a.9.9,0,0,0,1.3,0,1,1,0,0,0,0-1.3l-1.8-1.8a.9.9,0,1,0-1.3,1.3Z"></path><path class="cls-7" d="M261.4,270.8l1.7,1.8a1.2,1.2,0,0,0,1.4,0,1,1,0,0,0,0-1.3l-1.8-1.8a.9.9,0,1,0-1.3,1.3Z"></path><path class="cls-7" d="M279.1,277.3a.9.9,0,0,0,1.3,0l1.7-1.7a1,1,0,0,0,0-1.4,1,1,0,0,0-1.3,0l-1.7,1.8A.9.9,0,0,0,279.1,277.3Z"></path><path class="cls-7" d="M284,272.3a1,1,0,0,0,1.4,0l1.7-1.7a.9.9,0,0,0-1.3-1.3L284,271A1,1,0,0,0,284,272.3Z"></path><path class="cls-7" d="M283.8,275.3l1.8,1.8a.9.9,0,0,0,1.3,0,1,1,0,0,0,0-1.3l-1.8-1.8a.9.9,0,0,0-1.3,1.3Z"></path><path class="cls-7" d="M279.3,270.8l1.7,1.8a1.2,1.2,0,0,0,1.4,0,1,1,0,0,0,0-1.3l-1.8-1.8a.9.9,0,0,0-1.3,1.3Z"></path><path class="cls-7" d="M297,277.3a.9.9,0,0,0,1.3,0l1.7-1.7a1,1,0,0,0,0-1.4,1,1,0,0,0-1.3,0L297,276A.9.9,0,0,0,297,277.3Z"></path><path class="cls-7" d="M301.9,272.3a1,1,0,0,0,1.4,0l1.7-1.7a.9.9,0,0,0-1.3-1.3l-1.8,1.7A1,1,0,0,0,301.9,272.3Z"></path><path class="cls-7" d="M301.7,275.3l1.7,1.8a1,1,0,0,0,1.4,0,1,1,0,0,0,0-1.3L303,274a.9.9,0,0,0-1.3,1.3Z"></path><path class="cls-7" d="M297.2,270.8l1.7,1.8a1.2,1.2,0,0,0,1.4,0,1,1,0,0,0,0-1.3l-1.8-1.8a.9.9,0,0,0-1.3,1.3Z"></path><path class="cls-7" d="M314.8,277.3a1,1,0,0,0,1.4,0l1.7-1.7a1,1,0,0,0,0-1.4,1,1,0,0,0-1.3,0l-1.8,1.8A1,1,0,0,0,314.8,277.3Z"></path><path class="cls-7" d="M319.8,272.3a.9.9,0,0,0,1.3,0l1.8-1.7a.9.9,0,0,0-1.3-1.3l-1.8,1.7A1,1,0,0,0,319.8,272.3Z"></path><path class="cls-7" d="M319.6,275.3l1.7,1.8a1,1,0,0,0,1.4,0,1,1,0,0,0,0-1.3l-1.8-1.8a.9.9,0,1,0-1.3,1.3Z"></path><path class="cls-7" d="M315.1,270.8l1.7,1.8a1.2,1.2,0,0,0,1.4,0,1,1,0,0,0,0-1.3l-1.8-1.8a.9.9,0,1,0-1.3,1.3Z"></path><path class="cls-6" d="M296.6,260.2h-.1a106.6,106.6,0,0,1-16.4-15.8c-7.4-9-16.1-22.9-15.5-38.6a.8.8,0,1,1,1.6,0c-.6,15.2,7.9,28.8,15.2,37.5a92.8,92.8,0,0,0,16.1,15.5,1.1,1.1,0,0,1,.2,1.2A.9.9,0,0,1,296.6,260.2Z"></path><path class="cls-6" d="M298.2,157.8a.9.9,0,0,0,1.1-.6.8.8,0,0,0-.5-1.1c-18.3-7.2-19.9-19.7-19.9-19.8a.9.9,0,1,0-1.8.2c.1.6,1.7,13.6,21.1,21.2Z"></path><path class="cls-6" d="M289,160.2a.8.8,0,0,0,1.1-.5.8.8,0,0,0-.5-1.1c-10-4.2-11.2-9.9-11.2-10a.9.9,0,0,0-1.1-.7,1,1,0,0,0-.7,1.1c.1.2,1.5,6.7,12.4,11.2Z"></path><path class="cls-6" d="M319.6,180.2l2.2,16,.5,3.7,3.6,25.6.2-10.5-2.2-15.5-2.7-19.6a1,1,0,0,0-1-.7A.8.8,0,0,0,319.6,180.2Z"></path><path class="cls-6" d="M323.1,200.4h.5a.9.9,0,0,0,.2-1.1l-5.4-8a.9.9,0,0,0-1.1-.2.7.7,0,0,0-.2,1.1l5.3,8A1.1,1.1,0,0,0,323.1,200.4Z"></path><path class="cls-7" d="M247.9,283.8c0-.2.1-.3.3-.5a.7.7,0,0,1,1.1.2l.3.3Z"></path><path class="cls-6" d="M267.5,283.8c-9.5-4.7-19.7-12.2-25.3-23.4a.8.8,0,0,1,.4-1.1.8.8,0,0,1,1.1.3c5.9,12.2,17.6,19.7,27.5,24.2Z"></path><path class="cls-3" d="M291,139.7c12.3,4.9,18.8-7.6,18.8-7.6-2.6-5.5-4.8-16.1-5.4-21.2-.3-2.6-.4-4.3-.4-4.3l-22.8,14.8,1.2,9.5.3,2.3S283.4,136.6,291,139.7Z"></path><path class="cls-4" d="M282.4,130.9c12.4-3.7,19.5-15.2,21.8-21.4a12.8,12.8,0,0,1-.2-2.9l-22.8,14.8Z"></path><path class="cls-8" d="M262.1,86.9s-3-5.9-8.9-3.7-1.6,27.7,13.2,23.3Z"></path><path class="cls-3" d="M254.2,84.4a52.6,52.6,0,0,0,1.2,7.7h0c.4,2.2,1,4.6,1.7,7.2.1.5.3.9.4,1.4l.5,1.5a10.9,10.9,0,0,0,.5,1.7c.2.7.5,1.3.7,2a30.5,30.5,0,0,0,1.3,3.2c4.8,11.6,14.3,18.6,26.9,14.3,10.5-3.6,16.3-11.8,19.4-20.5,5-13.9,3.3-29.1,3.3-29.1-2.5-20.8-20.9-27.3-39.3-19.5S253.2,74.7,254.2,84.4Z"></path><path class="cls-4" d="M305.5,84.5s3.5,12.2,1.5,21.4-13.2,26-29.9,21.5-18.6-23.5-18.6-23.5,2.2,2.2,7.9,2.6,5.3-4.6,15.7-2.6,16.1-4.5,16.9-9.1a42.3,42.3,0,0,0,.9-7.5Z"></path><path class="cls-6" d="M286.8,105.3s-12.2,3-19.3,2.8c0,0,2.2,8.7,11.9,6.4C286.9,112.8,286.8,105.3,286.8,105.3Z"></path><path class="cls-8" d="M286.3,96.5c.1.9,2.8,1.2,5.9.7s5.5-1.7,5.4-2.7-2.9-1.2-6-.7S286.1,95.5,286.3,96.5Z"></path><path class="cls-8" d="M257.5,100.7l.5,1.5a10.9,10.9,0,0,0,.5,1.7l1.7-.3c3.1-.5,5.5-1.7,5.3-2.6s-2.8-1.3-5.9-.7Z"></path><path class="cls-4" d="M279,81.3l-.6-.6a1.6,1.6,0,0,1,.6-2,8.7,8.7,0,0,1,5-.7,10.4,10.4,0,0,1,4.2,1.8,1.4,1.4,0,0,1,.1,2.1,1.4,1.4,0,0,1-2,.1,8.5,8.5,0,0,0-2.9-1.2,5.1,5.1,0,0,0-3,.5A1.7,1.7,0,0,1,279,81.3Z"></path><path class="cls-4" d="M266,83.7a1.1,1.1,0,0,0,.3-.8,1.3,1.3,0,0,0-1.3-1.5,7,7,0,0,0-4.8,1.3,9.9,9.9,0,0,0-3.1,3.4,1.6,1.6,0,0,0,.7,2,1.5,1.5,0,0,0,1.9-.7,6,6,0,0,1,2.2-2.3,5,5,0,0,1,2.9-.8A1.3,1.3,0,0,0,266,83.7Z"></path><path class="cls-4" d="M298.4,80.2s1.3,6,1.5,7.1c2.7,0,4.3-.3,5.6-2.8a23.3,23.3,0,0,0,0-2.9,11.1,11.1,0,0,1,4.8-5.1c-6.4-5.7-20.7-4.9-20.7-4.9C292,77,296.8,78.5,298.4,80.2Z"></path><path class="cls-4" d="M310.3,76.5s7.6-7.3,4.2-13.4c-2-3.4-7.4-1.7-7.4-1.7s5-14.2,1-17.9-10.9,2.1-10.9,2.1S295.5,30.3,285,30.5s-2.9,13.4-2.9,13.4-16.6-10.4-23.6-6.4c-10.7,6,3.7,15.5,3.7,15.5s-20.2-6.6-17.6,4.4c1.2,5.2,9,7.5,9,7.5s-8.3,3-8.9,6.6c-.9,6.3,8.3,4.5,8.3,4.5-.3,2.1.6,4.1.9,5.4l3.6-1.5s-.2-5.2,1-8.4c0,0,25.4,1.4,31.5-6.9,0,0-2.9,2-.4,7Z"></path><path class="cls-4" d="M257.5,79.9a11.5,11.5,0,0,1-1,6.2,9.4,9.4,0,0,0-1,5.2v2.1s-3-8.4-1.7-12Z"></path><path class="cls-4" d="M281.9,88.5c.3,1.6,1.3,2.8,2.1,2.6s1.4-1.6,1.1-3.2-1.3-2.8-2.2-2.7S281.6,86.9,281.9,88.5Z"></path><path class="cls-4" d="M262.4,92.4c.3,1.6,1.3,2.8,2.2,2.6s1.3-1.6,1-3.3-1.3-2.8-2.2-2.6S262.1,90.7,262.4,92.4Z"></path><path class="cls-8" d="M277.4,101a1,1,0,0,0,.6-1,1,1,0,0,0-1.1-.8l-2.1.2a52.3,52.3,0,0,1,.1-7.7,1,1,0,1,0-2-.2,69,69,0,0,0,.1,9,1.1,1.1,0,0,0,.9.9,23.5,23.5,0,0,0,3.3-.3Z"></path><path class="cls-3" d="M305.5,81.6s2-6.3,8.2-5,8.5,23.9-6.8,22Z"></path><path class="cls-8" d="M309.5,93.7a.8.8,0,0,0,.6-1,11.5,11.5,0,0,1,3.3-10.8,1,1,0,0,0,.1-1.4.9.9,0,0,0-1.3-.1,13.5,13.5,0,0,0-4,12.7,1,1,0,0,0,1.2.7Z"></path><path class="cls-8" d="M313.9,88.2a1.2,1.2,0,0,0,.6-.8,1.1,1.1,0,0,0-.8-1.1c-.4,0-3.5-.5-5.3,1.1a1.1,1.1,0,0,0-.1,1.4,1,1,0,0,0,1.4,0c.9-.8,3-.7,3.7-.6Z"></path><path class="cls-6" d="M310.1,85.6a20.5,20.5,0,0,0-.3,4.2s2.9-.1,3-2.2S310.1,85.6,310.1,85.6Z"></path><path class="cls-6" d="M310.6,87.6l-.8.3s-.2,7.2,1.3,7.1.4-6.8.4-6.8Z"></path><path class="cls-6" d="M275.5,91.6a9.8,9.8,0,1,1,11,8.6A9.9,9.9,0,0,1,275.5,91.6Zm1.2-.1a8.6,8.6,0,1,0,7.5-9.6A8.6,8.6,0,0,0,276.7,91.5Z"></path><path class="cls-6" d="M292.1,85c.1.1.3.2.4.1l.4-.2a22,22,0,0,1,14.4-6.3l1.3-1.2A23.3,23.3,0,0,0,292,84.1.6.6,0,0,0,292.1,85Z"></path><path class="cls-6" d="M253,95.6a9.8,9.8,0,1,1,11,8.6A9.9,9.9,0,0,1,253,95.6Zm1.2-.1a8.6,8.6,0,1,0,7.5-9.6A8.6,8.6,0,0,0,254.2,95.5Z"></path><path class="cls-6" d="M271.5,92a1,1,0,0,0,.5-.4,2.2,2.2,0,0,1,1.7-1.4,2.3,2.3,0,0,1,1.9.6.5.5,0,0,0,.8.1.6.6,0,0,0,.1-.9,3,3,0,0,0-3-1,3.6,3.6,0,0,0-2.6,2.1.6.6,0,0,0,.3.8Z"></path><path class="cls-3" d="M328.8,217.2c.1.8.1,1.8.2,2.8v.8c.3,6.1.6,14.8,1.1,20.3s.7,9,1.2,13.3a19.4,19.4,0,0,0,.2,2.4h0c.2,1,.3,1.9.4,2.8.4,3.1.8,6,1.3,8.4,1.9,9.9,7.6,15.8,12.8,15,3.6-.6,7-4.4,8.8-12.2,3-13,2.8-34.9,1.5-47.2-.1-.8-.3-3.8-.5-6.1s-.2-2-.2-2.4h0Z"></path><path class="cls-4" d="M328.8,217.2c.1,1,.1,2.3.2,3.6h0l26.8-2.8c-.1-1.3-.2-2.3-.2-2.8h0l-26.8,2.1Z"></path><path class="cls-3" d="M217.9,235.1s5.6-6.8-11.6-28.8-19.7-30.1-25.8-33.7c-15.9-9.7,7.8,71.1,24.6,71.4C213.7,244.2,217.9,235.1,217.9,235.1Z"></path><path class="cls-8" d="M168.7,167.5s-5.6-3.6-6-8.8a12.7,12.7,0,0,1,3-8.8Z"></path><path class="cls-9" d="M162.4,139l6.7,31.5a3.1,3.1,0,0,0,2.9,2.4h16.8a3.1,3.1,0,0,0,3-3.7L185,137.7a3.1,3.1,0,0,0-3-2.5H165.4A3,3,0,0,0,162.4,139Z"></path><path class="cls-4" d="M162.4,139l6.7,31.5a3.1,3.1,0,0,0,2.9,2.4h13.8a3,3,0,0,0,3-3.7l-6.7-31.5a3,3,0,0,0-2.9-2.4H165.4A3,3,0,0,0,162.4,139Z"></path><path class="cls-9" d="M171.5,153.3a3.1,3.1,0,1,0,3.1-3.1A3.1,3.1,0,0,0,171.5,153.3Z"></path><path class="cls-3" d="M176.3,183.7s-8.1-11.2-11.7-23.6a54.1,54.1,0,0,1-1.9-22.6s1.6-1.8,2.7,4.3,2,10.6,2,10.6-2.1-19.8,0-20.2,4.2,19.4,4.2,19.4-.4-17.1,1.1-18,2.6,13.3,3.3,17.3c0,0,.3-10.8,2-11.5s1.8,12.4,2.9,16.3,5.5,7.1,5.7,13.3S184.7,185.3,176.3,183.7Z"></path><path class="cls-3" d="M283.1,283.9s28.5.2,50.8-.1h9.2a8.2,8.2,0,0,0,2.9-.7c3.6-1.6,7-5.6,8.3-12l.4-1.9a10.4,10.4,0,0,0-5.3-11.3l-.4-.2a10.1,10.1,0,0,0-2.8-.9,28.1,28.1,0,0,0-9.9-.8h-1.6l-3.2.6h-.3c-5.7,1.4-11.3,4.3-16.9,7.5-11.5,6.5-31.7,10-31.7,10C277.9,279.5,283.1,283.9,283.1,283.9Z"></path><path class="cls-4" d="M331.2,256.9h.3a27.5,27.5,0,0,1,10.1,3,30,30,0,0,0-5.3-3.9,13.3,13.3,0,0,0-5-1.6,19.4,19.4,0,0,0,.2,2.4Z"></path><path class="cls-3" d="M282.6,273.8s-12.5-4.6-21.1-2.7-12,12.4-12,12.4l33.2-.3S287.2,275.2,282.6,273.8Z"></path><path class="cls-10" d="M94.2,245.5l8.7,37a2.1,2.1,0,0,0,2.1,1.7h53.9a2.2,2.2,0,0,0,2.1-2.7l-8.7-37a2.3,2.3,0,0,0-2.2-1.7H96.3A2.1,2.1,0,0,0,94.2,245.5Z"></path><path class="cls-11" d="M100.5,281.3a.3.3,0,0,1-.3-.3l-7.5-31.6a.4.4,0,0,1,.2-.5c.3,0,.5.1.5.3l7.5,31.6c0,.3-.1.5-.3.5Z"></path><path class="cls-11" d="M148,242.8l9.3,41.4h1.6a2.2,2.2,0,0,0,2.1-2.7l-8.7-37a2.3,2.3,0,0,0-2.2-1.7Z"></path><path class="cls-11" d="M120.8,265.7a4.1,4.1,0,0,0,4.1,4.1,4.1,4.1,0,0,0,0-8.2A4.1,4.1,0,0,0,120.8,265.7Z"></path><rect class="cls-12" x="189" y="276.1" width="130.5" height="7.8" rx="2.1" transform="translate(508.6 560) rotate(180)"></rect><path class="cls-13" d="M146.3,212.4l16.2,68.3a4,4,0,0,0,3.9,3.1H266a4,4,0,0,0,3.9-4.9l-16.2-68.4a4,4,0,0,0-3.9-3.1H150.2A4,4,0,0,0,146.3,212.4Z"></path><path class="cls-12" d="M245.9,207.4l17.2,76.4H266a4,4,0,0,0,3.9-4.9l-16.2-68.4a4,4,0,0,0-3.9-3.1Z"></path><circle class="cls-12" cx="203.1" cy="249.7" r="7.6"></circle><path class="cls-6" d="M267.6,267.6a.4.4,0,0,1-.4-.3l-13-55c-.1-.2.1-.4.3-.5s.4.1.4.3l13,55c.1.2-.1.4-.3.4Z"></path><rect class="cls-4" x="29" y="283.9" width="451.8" height="5.5" rx="1.5" transform="translate(509.8 573.3) rotate(180)"></rect><circle class="cls-4" cx="415.2" cy="68.4" r="27.7" transform="translate(21.9 218.1) rotate(-30.2)"></circle><circle class="cls-6" cx="415.2" cy="68.4" r="25.5" transform="translate(137.1 384.2) rotate(-58)"></circle><rect class="cls-4" x="414.4" y="45.2" width="1" height="5.33"></rect><rect class="cls-4" x="414.4" y="86.1" width="1" height="5.33"></rect><rect class="cls-4" x="391.7" y="67.8" width="5.3" height="0.96"></rect><rect class="cls-4" x="432.7" y="67.8" width="5.3" height="0.96"></rect><rect class="cls-4" x="426.7" y="53.3" width="5.3" height="0.96" transform="translate(87.7 319.4) rotate(-45)"></rect><rect class="cls-4" x="397.7" y="82.3" width="5.3" height="0.96" transform="translate(58.7 307.3) rotate(-45)"></rect><rect class="cls-4" x="399.9" y="51.2" width="1" height="5.33" transform="translate(79.2 298.9) rotate(-45)"></rect><rect class="cls-4" x="428.8" y="80.1" width="1" height="5.33" transform="translate(67.2 327.8) rotate(-45)"></rect><g class="cls-14"><path class="cls-4" d="M440.8,68.4a6.1,6.1,0,0,1-.1,1.4,25.5,25.5,0,0,0-51,0V68.4a25.6,25.6,0,1,1,51.1,0Z"></path></g><rect class="cls-2" x="418.6" y="65" width="0.8" height="9.7" transform="translate(200.5 434.1) rotate(-68.5)"></rect><polygon class="cls-4" points="415.2 68.7 400.3 68.7 400.3 67.9 414.4 67.9 414.4 56.3 415.2 56.3 415.2 68.7"></polygon><path class="cls-12" d="M344.4,69.6H332.2a2.5,2.5,0,0,0-2.4,2.6v32.5a3.9,3.9,0,0,0,3.9,3.9l42.5-.2a2.3,2.3,0,0,0,2.4-2.3V75.8a2.1,2.1,0,0,0-2.1-2.1H351.7Z"></path><path class="cls-13" d="M378.7,106.1V85l-48.8.2v21a2.3,2.3,0,0,0,2.3,2.4l44.1-.2A2.3,2.3,0,0,0,378.7,106.1Z"></path><path class="cls-6" d="M351.1,60.4h2.9a3.2,3.2,0,0,1,3.2,3.2v36.7a3.2,3.2,0,0,1-3.2,3.2h-2.9a0,0,0,0,1,0,0V60.4a0,0,0,0,1,0,0Z" transform="translate(273.3 436.4) rotate(-90.2)"></path><path class="cls-1" d="M372.1,82.1V85h-1.9V82.1a.9.9,0,0,1,.9-.9A.9.9,0,0,1,372.1,82.1Z"></path><path class="cls-1" d="M367.8,82.1V85h-1.9v-3a.9.9,0,0,1,.9-.9A.9.9,0,0,1,367.8,82.1Z"></path><path class="cls-1" d="M363.5,82.1v3h-1.9v-3a.9.9,0,0,1,1-.9A.9.9,0,0,1,363.5,82.1Z"></path><path class="cls-1" d="M359.2,82.1v3h-1.9v-3a1,1,0,0,1,1-.9A.9.9,0,0,1,359.2,82.1Z"></path><path class="cls-1" d="M355,82.2v2.9h-1.9V82.2a.9.9,0,0,1,.9-1A1,1,0,0,1,355,82.2Z"></path><path class="cls-1" d="M350.7,82.2v2.9h-1.9V82.2a1,1,0,0,1,.9-1A1,1,0,0,1,350.7,82.2Z"></path><path class="cls-1" d="M346.4,82.2v2.9h-1.9V82.2a1,1,0,0,1,.9-1A1,1,0,0,1,346.4,82.2Z"></path><path class="cls-1" d="M342.1,82.2v2.9h-1.9V82.2a.9.9,0,0,1,1-.9A.9.9,0,0,1,342.1,82.2Z"></path><path class="cls-1" d="M337.8,82.2v3H336v-3a1,1,0,0,1,1-.9A.9.9,0,0,1,337.8,82.2Z"></path><rect class="cls-12" x="374.9" y="178.9" width="22.5" height="22.51" rx="4.6"></rect><rect class="cls-13" x="373.4" y="178.9" width="22.5" height="22.51" rx="4.6"></rect><path class="cls-6" d="M385,182.7a4.9,4.9,0,0,0-5.3,4.9,4.3,4.3,0,0,0,.7,2.5l1.9,3.3,2.4,4.2,3.5-6.4.7-1.1a4.4,4.4,0,0,0,.6-2.6A4.9,4.9,0,0,0,385,182.7Zm-.4,6.4a2.1,2.1,0,1,1,0-4.1,2,2,0,0,1,2.1,2A2.1,2.1,0,0,1,384.6,189.1Z"></path><rect class="cls-15" x="374.9" y="145" width="22.5" height="22.51" rx="4.6"></rect><rect class="cls-2" x="373.4" y="145" width="22.5" height="22.51" rx="4.6"></rect><path class="cls-6" d="M389.7,157.3l-.4.5h-.1a17.7,17.7,0,0,1-3.5,2.7h-.2l-.9.6a23.1,23.1,0,0,1-4.7-3.6,3.8,3.8,0,0,1-1.2-2.7,3.6,3.6,0,0,1,.9-2.3,3,3,0,0,1,2.1-.7h.3a3.1,3.1,0,0,1,2,1.1l.6.7.6-.7a5.1,5.1,0,0,1,1.3-.9h0l1-.2h.1a2.6,2.6,0,0,1,2,.7,2.8,2.8,0,0,1,.9,2.3A4.2,4.2,0,0,1,389.7,157.3Z"></path><rect class="cls-11" x="374.9" y="211.7" width="22.5" height="22.51" rx="1.1"></rect><rect class="cls-10" x="373.4" y="211.7" width="22.5" height="22.51" rx="1.1"></rect><path class="cls-6" d="M384.6,215.6A7.4,7.4,0,1,0,392,223,7.4,7.4,0,0,0,384.6,215.6Zm.3,10.1v-2.6h3.4a20.2,20.2,0,0,1-.4,2.6Zm2.1,2.9a5.8,5.8,0,0,0,1.3-2.3h2.3a6.9,6.9,0,0,1-4.5,3.3Zm.7-2.3a12.8,12.8,0,0,1-1.1,2,8.2,8.2,0,0,1-1.7,1.5v-3.5Zm-2.8-7v-3.1h.3a9.1,9.1,0,0,1,2.3,3.1Zm3.3,0a16.2,16.2,0,0,0-1-1.8,5.2,5.2,0,0,0-1-1.1,6.9,6.9,0,0,1,4.2,2.9Zm-3.3,3.2v-2.6h2.8a8.2,8.2,0,0,1,.6,2.6Zm4,0a11.9,11.9,0,0,0-.5-2.6h2.3a7.7,7.7,0,0,1,.7,2.6Zm2.5.6a5.8,5.8,0,0,1-.6,2.6h-2.3a20.2,20.2,0,0,0,.4-2.6Zm-10.6,2.6h-2.4a5.8,5.8,0,0,1-.6-2.6h2.7A10.9,10.9,0,0,0,380.8,225.7Zm1-6.4a6.4,6.4,0,0,1,.8-1.4,17.9,17.9,0,0,1,1.5-1.7h.2v3.1Zm2.5.6v2.6h-3.2a8,8,0,0,1,.5-2.6Zm-5.4-.6a7.1,7.1,0,0,1,4.2-3l-.9,1.2a8.1,8.1,0,0,0-1,1.8Zm5.4,3.8v2.6h-2.9a10.9,10.9,0,0,1-.3-2.6Zm-6.5-.6a7.7,7.7,0,0,1,.7-2.6h2.4a11.7,11.7,0,0,0-.4,2.6Zm3.2,3.8a7.3,7.3,0,0,0,1.3,2.3l.9,1a6.9,6.9,0,0,1-4.5-3.3Zm3.3,0v3.4a7.4,7.4,0,0,1-2.6-3.4Z"></path><rect class="cls-7" x="374.9" y="245.9" width="22.5" height="22.51" rx="4.6"></rect><rect class="cls-5" x="373.4" y="245.9" width="22.5" height="22.51" rx="4.6"></rect><path class="cls-6" d="M390.4,252.9a.9.9,0,0,1-.1-.5,3.5,3.5,0,0,0-.8-1.3,3,3,0,0,0-.8-.8,1.1,1.1,0,0,0-1.3.3l-1.8,2.1a1.1,1.1,0,0,0,.1,1.5l1,.8h.2a9.4,9.4,0,0,1-4.1,4.9l-.7-.6-.4-.3a.9.9,0,0,0-1.2,0l-.4.3-1.6,2-.3.6v.3l.3.5,1.1.8a2.7,2.7,0,0,0,1.5.3l1.1-.2a6.8,6.8,0,0,0,2.4-1.2,10.6,10.6,0,0,0,2-1.7,15.1,15.1,0,0,0,2.2-2.8,8.5,8.5,0,0,0,1.3-2.5,3.2,3.2,0,0,0,.3-1.4v-1.2Z"></path><path class="cls-6" d="M228.3,41.5H118.8v79.2a4.5,4.5,0,0,0,4.5,4.5H223.8a4.5,4.5,0,0,0,4.5-4.5Z"></path><path class="cls-5" d="M228.3,39.6V49H118.9V39.6a4.6,4.6,0,0,1,4.6-4.6H223.8A4.5,4.5,0,0,1,228.3,39.6Z"></path><circle class="cls-13" cx="207" cy="41.3" r="2.4"></circle><circle class="cls-10" cx="214.9" cy="41.3" r="2.4"></circle><circle class="cls-2" cx="222.5" cy="41.3" r="2.4"></circle><rect class="cls-13" x="188.6" y="59.2" width="6" height="5.95"></rect><rect class="cls-5" x="188.6" y="69.8" width="6" height="5.95"></rect><path class="cls-1" d="M220.1,71.1H200.3a1.8,1.8,0,0,0-1.8,1.7h0a1.8,1.8,0,0,0,1.8,1.7h19.8a1.8,1.8,0,0,0,1.8-1.7h0A1.8,1.8,0,0,0,220.1,71.1Z"></path><path class="cls-1" d="M220.1,60.5H200.3a1.8,1.8,0,0,0-1.8,1.7h0a1.8,1.8,0,0,0,1.8,1.7h19.8a1.8,1.8,0,0,0,1.8-1.7h0A1.8,1.8,0,0,0,220.1,60.5Z"></path><path class="cls-1" d="M188.7,105.7h0a1.6,1.6,0,0,0,1.6,1.6h29.8a1.6,1.6,0,0,0,1.6-1.6h0a1.6,1.6,0,0,0-1.6-1.7H190.3A1.6,1.6,0,0,0,188.7,105.7Z"></path><path class="cls-1" d="M188.6,98.9h0a1.7,1.7,0,0,0,1.7,1.7H220a1.6,1.6,0,0,0,1.7-1.7h0a1.6,1.6,0,0,0-1.7-1.6H190.3A1.7,1.7,0,0,0,188.6,98.9Z"></path><rect class="cls-1" x="188.6" y="90.5" width="33.1" height="3.35" rx="1.7"></rect><path class="cls-1" d="M188.6,85.5h0a1.7,1.7,0,0,0,1.7,1.7H220a1.7,1.7,0,0,0,1.6-1.7h0a1.6,1.6,0,0,0-1.6-1.7H190.3A1.6,1.6,0,0,0,188.6,85.5Z"></path><path class="cls-5" d="M176,85.2a22.2,22.2,0,0,1-44.3,0,22.7,22.7,0,0,1,1.7-8.6l20.5,8.6-1.1-22.1h1.1A22.2,22.2,0,0,1,176,85.2Z"></path><path class="cls-13" d="M150.8,59.6A22,22,0,0,0,134.5,68a24,24,0,0,0-3.1,5.1l20.5,8.6Z"></path><polygon class="cls-2" points="429.7 245.7 429.4 249 428.9 254.7 428.8 255.7 428.4 260.5 427.9 265.8 427.9 266 427.4 272 426.9 277.3 426.3 283.9 408 283.9 407.8 282.4 407.3 276 406.9 272.1 406.4 265.8 406.4 265.7 406 261.8 405.5 255.7 405.5 255.3 405.2 251.5 404.6 245.7 429.7 245.7"></polygon><polygon class="cls-6" points="428.8 255.7 428.4 260.5 427.9 265.8 406.4 265.8 406.4 265.7 406 261.8 405.5 255.7 428.8 255.7"></polygon><rect class="cls-15" x="403.4" y="240.8" width="27.6" height="4.89"></rect><path class="cls-2" d="M406.9,236.6h20.5a1.5,1.5,0,0,1,1.5,1.5v2.7a0,0,0,0,1,0,0H405.4a0,0,0,0,1,0,0v-2.7A1.5,1.5,0,0,1,406.9,236.6Z"></path><path class="cls-10" d="M457.4,250.4a3.4,3.4,0,0,1-2.1.8h-1.5a6,6,0,0,1-2-.7s.3-14-5.4-23.6-13.1-22.9-7.1-29.7,15.6,2.6,18.8,18.6S457.4,250.4,457.4,250.4Z"></path><path class="cls-11" d="M455.3,251.2h-1.5c1.8-24.8-9.4-44-9.6-44.2a.7.7,0,0,1,.3-1,.7.7,0,0,1,1,.3A84.9,84.9,0,0,1,455.3,251.2Z"></path><path class="cls-10" d="M476.8,227.9c-13.2,21.3-12.3,26.3-12.3,26.3l-1.8-.3-1.4-.3-2.1-.4c-1.2-9.4,6.1-49.5,19-49.5S481.3,220.6,476.8,227.9Z"></path><path class="cls-11" d="M476.3,215.6c-.1.2-11.2,19.9-13.6,38.3l-1.4-.3c2.4-18.6,13.6-38.5,13.7-38.8a.8.8,0,0,1,1-.2A.7.7,0,0,1,476.3,215.6Z"></path><path class="cls-10" d="M447.7,253.4h0Z"></path><path class="cls-10" d="M451.6,252.3l-1.5.4-1.4.4-.9.2c0-.1-.6-1.8-9.9-14.2-3.9-5.1-14.1-18.9-4.7-21.3S451.9,245.2,451.6,252.3Z"></path><path class="cls-11" d="M450.1,252.7l-1.4.4c-2.7-12-13.6-26.7-13.7-26.8a.8.8,0,0,1,.1-1.1.9.9,0,0,1,1.1.2C436.7,226,447.4,240.5,450.1,252.7Z"></path><path class="cls-2" d="M470,249.1v34.8H440.5V249.1a1,1,0,0,1,1-1H469A1,1,0,0,1,470,249.1Z"></path><rect class="cls-15" x="440.5" y="251.3" width="29.6" height="0.85"></rect><rect class="cls-15" x="440.5" y="256.2" width="29.6" height="0.84"></rect><rect class="cls-15" x="440.5" y="275.7" width="29.6" height="0.85"></rect><rect class="cls-15" x="440.5" y="280.5" width="29.6" height="0.85"></rect><path class="cls-2" d="M87.3,260.9h1.4v-2H36.4a6.3,6.3,0,0,0-4.4,1.8,6.2,6.2,0,0,0,4.4,10.7H88.7v-1.8H87.3Z"></path><path class="cls-6" d="M87.7,260.9v8.7h-48a4.2,4.2,0,0,1-4.2-4.3,4.3,4.3,0,0,1,1.2-3.1,4.2,4.2,0,0,1,3-1.3Z"></path><path class="cls-1" d="M87.7,263.1v1.4H41a.7.7,0,0,1-.7-.7h0a.7.7,0,0,1,.7-.7Z"></path><path class="cls-1" d="M87.7,266.4v1.3H41a.7.7,0,0,1-.7-.6h0a.7.7,0,0,1,.7-.7Z"></path><path class="cls-5" d="M91.8,273.5h1.4v-2.1H40.9a6.4,6.4,0,0,0-4.5,1.9A6.3,6.3,0,0,0,40.9,284H93.2v-1.8H91.8Z"></path><path class="cls-6" d="M92.2,273.5v8.7h-48a4.4,4.4,0,0,1-4.3-4.4,4.4,4.4,0,0,1,4.3-4.3Z"></path><path class="cls-1" d="M92.2,275.7V277H45.4a.6.6,0,0,1-.6-.6h0a.6.6,0,0,1,.6-.6Z"></path><path class="cls-1" d="M92.2,279v1.3H45.4a.7.7,0,0,1-.6-.7h0a.6.6,0,0,1,.6-.6Z"></path></svg> 