<?xml version="1.0" encoding="UTF-8"?> <svg xmlns="http://www.w3.org/2000/svg" viewBox="0 0 472.61 416.17"><defs><style>.cls-1{fill:#dfeff5;}.cls-1,.cls-10,.cls-11,.cls-12,.cls-13,.cls-14,.cls-15,.cls-16,.cls-17,.cls-18,.cls-19,.cls-2,.cls-20,.cls-21,.cls-22,.cls-23,.cls-24,.cls-25,.cls-26,.cls-27,.cls-29,.cls-3,.cls-30,.cls-31,.cls-32,.cls-33,.cls-4,.cls-5,.cls-6,.cls-7,.cls-8,.cls-9{fill-rule:evenodd;}.cls-2{fill:#06152d;}.cls-3{fill:#01142e;}.cls-4{fill:#002049;}.cls-5{fill:#d1d8e4;}.cls-6{fill:#949dae;}.cls-7{fill:#7a8296;}.cls-8{fill:#122344;}.cls-9{fill:#cc3129;}.cls-10{fill:#9d2529;}.cls-11{fill:#d77f68;}.cls-12{fill:#e6ad83;}.cls-13{fill:#ebbf9e;}.cls-14{fill:#fff;}.cls-15{fill:#d26070;}.cls-16{fill:#a9b0c2;}.cls-17{fill:#d7766d;}.cls-18,.cls-28{fill:#111;}.cls-19{fill:#1c1c1c;}.cls-20{fill:#303030;}.cls-21{fill:#232323;}.cls-22{fill:#ff9f21;}.cls-23{fill:#d0d9e6;}.cls-24{fill:#ff3324;}.cls-25{fill:#ba2b27;}.cls-26{fill:#f2856e;}.cls-27{fill:#fcb187;}.cls-29{fill:#ffc3a1;}.cls-30{fill:#fa6676;}.cls-31{fill:#e29a30;}.cls-32{fill:#283766;}.cls-33{fill:#d97a2d;}</style></defs><g id="OBJECTS"><path class="cls-1" d="M195.54,67.24c15.66,13.51,50.33,36.6,95,25.47,11.76-6.38-1.09-22.72-6-28.15C272.43,51.09,252,35.63,234.82,26.25,199.48,6.93,156.34,33.41,195.54,67.24Z"></path><path class="cls-1" d="M424.2,396.12s42.72-61.84-7.12-115.39c0,0,44.76-60.54,16.28-129.23S350,88.63,306.21,102.6s-100.7,7-144.44-47.73S67.17,11.79,47.84,37.41s-24.41,78-3.05,130.39S54,254,35.64,279.56,15.29,376.47,59,396.12Z"></path><path class="cls-2" d="M11.73,396.28H454.46a2.86,2.86,0,0,1,2.82,2.89h0a2.86,2.86,0,0,1-2.82,2.88H445a1.59,1.59,0,0,0-1.57,1.6h0a1.59,1.59,0,0,0,1.57,1.6h3.48a2,2,0,0,1,2,2h0a2,2,0,0,1-2,2H18.08a2,2,0,0,1-2-2h0a2,2,0,0,1,2-2h2.74a1.59,1.59,0,0,0,1.57-1.6h0a1.59,1.59,0,0,0-1.57-1.6H11.73a2.86,2.86,0,0,1-2.82-2.88h0a2.86,2.86,0,0,1,2.82-2.89Zm1.47,13a1.9,1.9,0,0,0,1.88-1.92v-.16a1.9,1.9,0,0,0-1.88-1.92h0a1.91,1.91,0,0,0-1.88,1.92v.16a1.91,1.91,0,0,0,1.88,1.92Z"></path><path class="cls-3" d="M350.71,377.75s9.08,7.95,12.37,8.58,10.51,1.26,12,2.15,3,4.6,3.13,5.3.56,3.15-1.65,3.15H335.94c-1.7,0-2-.94-2-2.33a5.55,5.55,0,0,1,1-2.78v-7.76a3,3,0,0,1,2.9-3.22c3.43-.22,7.17,1.75,9.39-1.85C348.19,377.39,348.62,376.16,350.71,377.75Z"></path><path class="cls-3" d="M350.71,377.75s8.71,7.62,12.16,8.53a6.52,6.52,0,0,1-4.38,2c-1.26-.1-10.64-4.37-11.49-5.51s0-3.5,0-3.5h0l.18-.26C348.19,377.39,348.62,376.16,350.71,377.75Z"></path><path class="cls-4" d="M377.49,391.82a13.87,13.87,0,0,1,.76,2c.16.69.56,3.15-1.65,3.15H335.94c-1.7,0-2-.94-2-2.33a5.55,5.55,0,0,1,1-2.78Z"></path><path class="cls-5" d="M374.4,153.5c-1.5-8.47-12.18-35.14-20.49-49.56,0,0-3,4.24-7.62,3.11l7.36,44C357.7,153.13,372.84,148.05,374.4,153.5Z"></path><path class="cls-6" d="M350.57,132.6,353.65,151c2.12,1.1,7.26.23,11.92-.06l-10.28-38.45-3.23,4.15Z"></path><path class="cls-6" d="M355.09,191.09l2.72,5.63.72,8.64a66.59,66.59,0,0,1,3.53,6.19c.52,1.43,2.34,13.09,2.53,15.23S355.33,324.09,354,341.22a260,260,0,0,0,.36,37.35c.17,1.66-7.88,4.52-10.83,4.76a33,33,0,0,1-8.16-1h-.06c-1.13-.3-1.2-1.71-1.2-1.71l-.78-30.13h0c.09-4.49.08-17-.1-22.22-.19-5.47-2.78-100.64-2.78-100.64l7.56-34Z"></path><path class="cls-7" d="M353.88,371c.21,4.18.44,7,.51,7.61.17,1.66-7.88,4.52-10.83,4.76a33,33,0,0,1-8.16-1h-.06c-1.13-.3-1.2-1.71-1.2-1.71l0-.57Z"></path><path class="cls-7" d="M357.83,197l.7,8.36a66.59,66.59,0,0,1,3.53,6.19c.45,1.25,1.91,10.36,2.39,14l-16.22-5.92s-2.35-1.41-4.24,3.68c-1.31,3.54-8.11,34.93-12.15,53.84-.69-24.92-1.36-49.57-1.36-49.57L336,202.76l19.4-5.84S356.34,196.93,357.83,197Z"></path><path class="cls-6" d="M307.1,191.53l-1.23,4.07s-3.94,2.62-4.19,3.93-1.39,4.17-1.76,6.08,1.64,6.5,1,7.93-4,71.42-4,79.73-.24,8-.62,14.35h0l-2.59,72a2.65,2.65,0,0,0,2.29,3c2.71.63,13.14.16,15-.23a10.86,10.86,0,0,0,2.78-1.35c1.24-1.07.87-18.91,1.12-21.65s5.7-57.93,7.19-67.21S336.28,232,338.51,223,346,197,346,197Z"></path><path class="cls-7" d="M293.83,377.74l-.07,1.91a2.65,2.65,0,0,0,2.29,3c2.71.63,13.14.16,15-.23a10.86,10.86,0,0,0,2.78-1.35c.77-.65.92-7.65,1-13.58Z"></path><path class="cls-7" d="M300,205.17l-.09.44c-.37,1.9,1.64,6.5,1,7.93-.23.54-.85,10.82-1.54,23.86,12.37-7.93,30-19.13,32.75-20.33,4.29-1.89,4.9.47,4.9.47l1.69,4.51c1.61-6.36,4.44-15.86,6-21.14-3.38-.52-8.36-1.42-9.93-2.38S314.41,201.79,300,205.17Z"></path><path class="cls-8" d="M359.65,203.52a103.56,103.56,0,0,1-32.59,2.39c-17.48-1.64,13-12.08,21.27-9.18S359.65,203.52,359.65,203.52Z"></path><path class="cls-8" d="M317.86,98.8l-20.41,6.87s5.5,8.25,2.85,31.84c0,0,5.76,27.81,5.76,31.52S303,188.78,303,191.16c0,2.23,25.44,17.51,50.72,8.63,7.6-2.68,5.65-6.64,5.18-8.85-3.43-16-3-35.21-3.73-39.83-.8-5,4-14,4-14l-5-32.6-14.14-5.84Z"></path><polygon class="cls-9" points="334.94 111.65 343.31 171.91 339.03 184.24 329.34 170.66 330.79 111.65 333.24 110.37 334.94 111.65"></polygon><path class="cls-10" d="M335.89,106.94l-.95,4.71h-4.15l-4.15-5.91,4.28-4.53s3.39,1.76,3.58,2.48S335.89,106.94,335.89,106.94Z"></path><polygon class="cls-11" points="319.69 84.04 337.41 84.04 337.41 103.69 330.37 103.69 319.69 99.54 319.69 84.04"></polygon><polygon class="cls-2" points="319.69 96.85 319.69 97.73 332.49 103.69 326.82 111.19 317.86 98.8 319.69 96.85"></polygon><polygon class="cls-2" points="332.49 103.69 337.41 97.89 337.41 96.81 339.91 98.64 337.55 111.05 332.49 103.69"></polygon><path class="cls-11" d="M347.11,68.11l.4.07h0a5.41,5.41,0,1,1-4.54,1c-.15,1.61.1,3.59,2.14,3.8l0-3.13A1.87,1.87,0,0,1,347.11,68.11Z"></path><path class="cls-11" d="M311.36,68.11l-.4.06h0a5.42,5.42,0,1,0,6.5,5.46,5.38,5.38,0,0,0-2-4.33c.13,1.6-.14,3.58-2.18,3.76l.07-3.12A1.86,1.86,0,0,0,311.36,68.11Z"></path><path class="cls-12" d="M329.2,95.28c-10.13,0-18.57-12.5-18.57-22.36V59.81A18.62,18.62,0,0,1,329.2,41.24h0a18.63,18.63,0,0,1,18.57,18.57V72.64C347.77,83.45,340.4,95.28,329.2,95.28Z"></path><path class="cls-2" d="M323,63.1a.78.78,0,0,1-.64,1.42,5.1,5.1,0,0,0-4.59.3.78.78,0,0,1-.83-1.33A6.73,6.73,0,0,1,323,63.1Z"></path><path class="cls-2" d="M341.4,63.45a.78.78,0,1,1-.76,1.36,5.11,5.11,0,0,0-4.6-.08A.78.78,0,0,1,335,64.4a.77.77,0,0,1,.33-1.05A6.74,6.74,0,0,1,341.4,63.45Z"></path><path class="cls-13" d="M329.7,74.17a16.69,16.69,0,0,1,.9,2.93c-.08.39-2.13.76-2.67.24-.36-.35.08-1.89.47-2.92C328.94,73,329.23,72.9,329.7,74.17Z"></path><path class="cls-2" d="M333.1,81.59a3.9,3.9,0,0,1-7.8,0,.72.72,0,0,1,.72-.72h6.36A.72.72,0,0,1,333.1,81.59Z"></path><path class="cls-14" d="M326.41,80.87H332v.66a.63.63,0,0,1-.63.63H327a.63.63,0,0,1-.62-.63Z"></path><path class="cls-15" d="M332,84.28a3.91,3.91,0,0,1-5.66,0,3.91,3.91,0,0,1,5.66,0Z"></path><path class="cls-2" d="M320.12,73.52a2.24,2.24,0,1,0-2.24-2.23A2.23,2.23,0,0,0,320.12,73.52Z"></path><path class="cls-2" d="M338.28,73.52a2.24,2.24,0,1,0-2.23-2.23A2.24,2.24,0,0,0,338.28,73.52Z"></path><path class="cls-5" d="M336.69,206.63c0,4.53-2.52,5.53-2.52,5.53-2.89,2.27-35.6,12.45-36.48,12s-1.32-3.14-1.32-3.14c2.49-17.14,2.85-32.7,6.48-49.51a1.76,1.76,0,0,1,.38-2.77c0-1.13-3.21-30.21-3.21-30.21,3.46-20.15-2.57-32.81-2.57-32.81s15-6.3,15.78-6.36a2.33,2.33,0,0,1,1.47.56s10.42,36.93,10.92,39.45.45,18.28.7,21.05S336.69,206.63,336.69,206.63Z"></path><path class="cls-16" d="M320.07,119c2.64,9.44,5.3,19.07,5.55,20.31.35,1.73.43,9.71.53,15.44h-.62l-11.78-19.59,1.13-15.67,3.21-.47Z"></path><path class="cls-6" d="M309.43,100.73c2-.81,3.57-1.4,3.8-1.42a2.33,2.33,0,0,1,1.47.56s4.68,16.59,7.92,28.3l-13.87-12.54Z"></path><polygon class="cls-6" points="302.52 138.09 305.31 121.46 316.2 154.7 304.27 157.59 302.52 138.09"></polygon><path class="cls-6" d="M300,188.59c.7-5.63,1.57-11.31,2.82-17.13a1.76,1.76,0,0,1,.38-2.77c0-.32-.27-3-.65-6.62L326.29,160q0,.24,0,.42c.09,1,1.58,7.82,3.4,15.88Z"></path><path class="cls-5" d="M340.7,99a3.55,3.55,0,0,1,1-.06c.38.06,11.91,4.87,12.19,5s.54.25,1,2.83,4.25,27,4.37,27.87a54.4,54.4,0,0,1,.65,6.94c0,7.08-3.12,18.07-3.12,22.57,0,6.21,1.55,13.11,2.06,18.72,0,.17,0,.34,0,.51.5,6.37,8.89,22.48,8.32,33.09-.09,1.64-3.4,3.53-4.28,4.22s-1.32.69-3.21-.13-11.45-9.81-11.45-9.81a8.45,8.45,0,0,1-1.76-5.53c.13-3.4.38-52.72.38-55.23s1.38-10,1.57-11.51-6.89-39.13-6.89-39.13Z"></path><path class="cls-16" d="M346.94,154.76c0-2.61,0-4.35,0-4.77,0-2.52,1.38-10,1.57-11.51.09-.75-1.58-10.26-3.3-19.72h1.17l6.88,15.94-5.37,20.07Z"></path><path class="cls-6" d="M340.7,99a3.55,3.55,0,0,1,1-.06c.14,0,1.78.68,3.82,1.52l4.16,10.2-3,16.51c-2.05-11.57-5.1-27.79-5.1-27.79Z"></path><path class="cls-6" d="M357.81,157.13a45.88,45.88,0,0,0-1,7,57.94,57.94,0,0,0,.53,7.23l-10.52-1c0-4.55.05-8.81.06-12.26Z"></path><path class="cls-3" d="M309.62,381.75s-.34-4.74-3.15-4.74H301c-1.86,0-3.68,2.9-4.19,5a3.22,3.22,0,0,0-2.21,2.32c-.39,1.84-1.26,8.7-1.38,9.38s-.61,3.19,2.2,3.19h20.07c1.77,0,1.56-1.31,1.56-2.05a12,12,0,0,0-1.34-5C314.73,388.44,309.62,381.75,309.62,381.75Z"></path><path class="cls-3" d="M309.62,381.75s-.34-4.74-3.15-4.74H301c-1.86,0-3.68,2.9-4.19,5l2.25,4.77a4.2,4.2,0,0,0,3,1.08h6.36s1.67-.33,1.58-1.87S309.62,381.75,309.62,381.75Z"></path><path class="cls-4" d="M293.29,393.07c-.05.33-.09.57-.1.67-.13.68-.61,3.19,2.2,3.19h20.07c1.77,0,1.56-1.31,1.56-2.05a10.85,10.85,0,0,0-.23-1.81Z"></path><path class="cls-5" d="M315.8,156.05,353,151.12l6.8,12.26-50.24,12.31s-11.89,3.68-15.1-5.47-7.93-47.65-7.93-47.65a16.89,16.89,0,0,1,10.93-16.9s5.49,3.12,7,11,6.42,37.93,6.42,37.93A3.36,3.36,0,0,1,315.8,156.05Z"></path><path class="cls-6" d="M315.8,156.05l11.54-1.53,28.67,2,3.78,6.83-30.86,7.56-17.78-14.31,4.1-1.36A4.87,4.87,0,0,1,315.8,156.05Z"></path><path class="cls-2" d="M347.77,72.12,346,64.85s-5.78-4.24-3.72-10.14,2.45-5.32,2.45-5.32,7.71,3.47,4.28,19.11Z"></path><path class="cls-2" d="M310.63,72.12l1.79-7.27s5.78-4.24,3.73-10.14-2.46-5.32-2.46-5.32-7.7,3.47-4.27,19.11Z"></path><path class="cls-2" d="M310.63,61.9s-6.43,1.33-6.71-3.41S308,49.91,308,49.91s-1.32-8.36,1-12.44,7.26-.33,7.26-.33.76-4.62,5.29-3.52c0,0,.85-8.47,10.19-5.06s8.77,8.8,8.77,8.8,5.57-1.76,5.76,5.29c0,0,4.15.88,6.13,7.15s-2.52,13.65-3.59,14.42-4.24-2-5.18-5.07c0,0-1.61-.38-1.33-3,0,0-7.92,4.89-10.94-.94,0,0-3.4,2.2-4.91-.88,0,0-8.3,8.92-12.92,2.64S310.63,61.9,310.63,61.9Z"></path><path class="cls-13" d="M337.9,152.21l-13.25.18s-8.82-1.7-10.1-1.7a15.21,15.21,0,0,0-4.11,1.34l.71,4.6s6.94,3.4,8.54,4.2a5.9,5.9,0,0,0,5.43.24l12.64,1.74Z"></path><polygon class="cls-17" points="337.9 152.21 336.23 152.23 331.1 161.89 337.76 162.81 337.9 152.21"></polygon><path class="cls-5" d="M338,151.52l-1.2,12.2a1.44,1.44,0,0,0,1.1,1.45c1.19.38,29.31-.25,29.31-.25s7.42-1.64,7.42-9.31a12.77,12.77,0,0,0-.2-2.11,7.19,7.19,0,0,0-7.06-5.22l-12.81,1.61-15.41.91S338.09,150.83,338,151.52Z"></path><path class="cls-18" d="M119.67,378.51s-9.13,8.05-12.45,8.7-10.57,1.27-12.1,2.17-3,4.64-3.13,5.35-.57,3.2,1.64,3.2h40.88c1.72,0,2.06-1,2.06-2.38a5.57,5.57,0,0,0-1-2.79V384.9a3,3,0,0,0-2.9-3.25c-3.46-.23-7.23,1.76-9.45-1.88-1-1.63-1.42-2.86-3.52-1.26Z"></path><path class="cls-18" d="M119.67,378.51s-8.76,7.71-12.24,8.65a6.52,6.52,0,0,0,4.41,2c1.26-.09,10.71-4.42,11.56-5.58s0-3.53,0-3.53h0a1.41,1.41,0,0,1-.18-.27c-1-1.63-1.42-2.86-3.52-1.26Z"></path><path class="cls-19" d="M92.74,392.76a14.32,14.32,0,0,0-.75,2c-.19.71-.57,3.2,1.64,3.2h40.88c1.72,0,2.06-1,2.06-2.38a5.57,5.57,0,0,0-1-2.79Z"></path><path class="cls-20" d="M117.77,101.58s-9.56,2.66-11,7.41c-4.55,15.17-5.38,21.39-7.19,30.27-.84,4.18-9.79-11.46-13.86-20-.07-.12-7.8,2.68-15.16,3.52-3.34.39,13,39.92,22,46.64,8.74,6.57,18.92-1.25,27.93-32.91,0,0,5.7-20.09-2.72-34.89Z"></path><path class="cls-21" d="M86.77,121.32l-1-2.1c-.07-.12-7.8,2.68-15.16,3.52-3.34.39,13,39.92,22,46.64,8.49,6.39,18.35-.84,27.18-30.28-1.35-4.28-2.32-7.19-2.32-7.19s-5.44,17.8-9.67,25.67S95.4,165.2,90,158.2s-18.16-29.79-13.31-30.77a16.17,16.17,0,0,0,10.13-6.11Z"></path><path class="cls-19" d="M115.41,189.67l-2.77,5.7-.73,8.74a63.43,63.43,0,0,0-3.57,6.27c-.52,1.44,1.51,12.74,1.31,14.91s5.51,98.94,6.81,116.26a264.14,264.14,0,0,1-.34,37.79c-.18,1.69,8,4.57,10.94,4.82a33.43,33.43,0,0,0,8.25-1h.07c1.15-.29,1.21-1.74,1.21-1.74l.8-30.47h0c-.09-4.55-.09-17.22.1-22.48.18-5.54,2.81-101.82,2.81-101.82l-7.64-34.43Z"></path><path class="cls-18" d="M126.85,384.14l.21,0a33.43,33.43,0,0,0,8.25-1h.07c1.15-.29,1.21-1.74,1.21-1.74l.8-30.47h0c-.09-4.55-.09-17.22.1-22.48.13-4.24,1.71-61.49,2.44-88.23L128.86,214c-2.47,5.15,2.59,13.52,2.06,26.37-1.28,31.53.48,87.41-.27,122.64-.23,10.45-.85,16.63-3.8,21.16Z"></path><path class="cls-19" d="M164,190.11l1.26,4.12s4,2.65,4.23,4,1.4,4.23,1.79,6.15,4.62,9,5.24,10.48-3.23,22.35-3.23,30.76c0,6.23,1.92,61.63,1.58,62l2.63,72.85a2.67,2.67,0,0,1-2.31,3c-2.74.64-13.29.19-15.19-.23a11,11,0,0,1-2.81-1.35c-1.26-1.07-.87-19.14-1.12-21.91s-5.77-58.61-7.28-68c-.85-5.3-5.31-24-9.42-41-3.18-13.08-8.58-26.42-9.56-30.42-2.27-9.13-5.11-24.89-5.11-24.89Z"></path><path class="cls-22" d="M110.79,202.23a104.85,104.85,0,0,0,33,2.43c17.69-1.65-13.1-12.22-21.5-9.29s-11.46,6.86-11.46,6.86Z"></path><path class="cls-14" d="M154.39,96.3l20.66,7s-5.56,8.35-2.89,32.21c0,0-5.83,28.14-5.83,31.89s3.16,20,3.16,22.39-33,18.3-60.35,4.88a3.86,3.86,0,0,1-.66-2.27c-.14-1.74,18.83-31.24,19.63-36.35s-15.42-21-15.42-21l5.1-33,14.3-5.9Z"></path><polygon class="cls-23" points="134.79 96.14 134.95 96.14 134.95 97.1 139.93 102.98 152.88 96.94 152.88 96.25 153.09 96.25 154.73 98.01 145.91 111.28 139.93 102.98 132.64 109.93 132.43 97.85 134.79 96.14"></polygon><polygon class="cls-24" points="137.4 107.96 128.43 153.33 131.93 182.74 144.74 166.21 141.58 107.96 139.11 106.66 137.4 107.96"></polygon><path class="cls-25" d="M134.56,103.07l2.33,6.47,4.87.07,2.7-6.29-4.34-4.57c-3.25,1.67-3.3,2.92-5.56,4.32Z"></path><polygon class="cls-26" points="155.7 75.18 132.09 77.36 132.8 97.49 141.74 101.24 150.73 96.55 155.7 75.18"></polygon><polygon class="cls-14" points="139.59 101.24 132.87 91.93 131.49 95.84 132.48 109.29 139.59 101.24 145.33 108.83 154.39 96.3 152.19 90.56 139.59 101.24"></polygon><path class="cls-27" d="M178.62,202.6c.84,9.2-5.45,13.43-5.45,13.43s-3.89-15-2.67-19,2.79-3.41,2.79-3.41Z"></path><path class="cls-23" d="M172.4,196.38l-1.1,3.38s2.31,6.07,5.21,7.76a19.49,19.49,0,0,0,3.14,1.69l2.79-5.92Z"></path><path class="cls-20" d="M175.05,103.25s7.55,1.65,10,8.88,14.85,49.13,14.85,49.13c-3.94,19.15-6.06,26.22-14.07,44.52-3.36,6.29-13.38-8.65-14.3-9.45h0l9.91-28.66-9.25-32.21s-5.51-17.43,2.89-32.21Z"></path><path class="cls-20" d="M174.82,223.07c.87-.5-3.68-23.06-2.7-26.17a44.64,44.64,0,0,1,1.72-7.36l-4.26-19.74a1.76,1.76,0,0,0-.37-2.79c0-1.15,3.23-30.57,3.23-30.57-3.5-20.38,2.61-33.19,2.61-33.19-6.87-2.88-12.65-6.08-20-6.84-3.2,7.57-20.58,51.88-21.32,59.75-.16,1.76-.89,21-1.44,35.21-.25,6.79.53,12,4.1,16.38,11,13.47,36.26,16.56,38.43,15.32Z"></path><path class="cls-21" d="M168.92,221.68c3.36,1,5.67,1.53,5.9,1.39.87-.5-3.68-23.06-2.7-26.17a44.64,44.64,0,0,1,1.72-7.36l-4.26-19.74a1.76,1.76,0,0,0-.37-2.79c0-.35.3-3.25.71-7.16-2.31-5.15-4-8.83-4-8.83-3.27,16.83-3.39,16.72-3.39,16.72s2.18,6.77,1.44,9.93,3.39,26.85,4.74,36.19a33.83,33.83,0,0,1,.23,7.82Z"></path><path class="cls-21" d="M169.21,167c0-1.15,3.23-30.57,3.23-30.57a74,74,0,0,1-1.05-11.09l-6,26.44Z"></path><path class="cls-20" d="M131.91,96.09c0-.36-13.68,5.24-14,5.4s-.55.25-1.05,2.86-4.3,27.27-4.42,28.21-.23,2.15.34,6a64.52,64.52,0,0,1,1,8.28c-.09.52.28,15.83-1.25,26.67-1.7,12.08-4.79,25.05-8.17,41.86-1.9,9.45,21.82-1.88,26.42-10.13,4.12-7.46,2.13-12.33,2.54-17,1.21-14.12,2.88-32.28,2.72-33.88-.64-6.38-4.46-56.55-4.18-58.29Z"></path><path class="cls-18" d="M160.16,382.56s.36-4.8,3.43-4.8h6c2,0,4,2.95,4.55,5.1a3.38,3.38,0,0,1,2.4,2.35c.44,1.86,1.38,8.79,1.51,9.47s.67,3.25-2.4,3.25H153.8c-1.92,0-1.7-1.32-1.7-2.08a11.74,11.74,0,0,1,1.47-5.06c1-1.46,6.59-8.23,6.59-8.23Z"></path><path class="cls-18" d="M160.16,382.56s.36-4.8,3.43-4.8h6c2,0,4,2.95,4.55,5.1l-2.45,4.82a4.69,4.69,0,0,1-3.22,1.1h-6.91s-1.81-.34-1.74-1.9.37-4.32.37-4.32Z"></path><path class="cls-19" d="M177.91,394a6.44,6.44,0,0,0,.11.66c.14.69.67,3.25-2.4,3.25H153.8c-1.92,0-1.7-1.32-1.7-2.08a12,12,0,0,1,.26-1.83Z"></path><path class="cls-23" d="M70.1,118.67c4.73,1.21,7.16,1.51,10.54-1.58s1.69-.48,3.68,2.31c3.11,4.33-7.16,7.64-11.91,6.48Z"></path><path class="cls-27" d="M65.91,113c-4.85-9-7.53-13.34-5.33-13.57s5.08,5.2,5.08,5.2-3.39-9-1.21-9.2,5,8.49,5,8.49S67,96.76,67.12,94.12c.07-.82,1.28-1.37,1.74-.86,2,2,4.3,9.33,4.3,9.33S70.81,96,71,93.48c0-.64.62-1.07,1-1,1.83.37,4.48,10.09,4.48,10.09l5.08,7.75L76.32,116Z"></path><path class="cls-27" d="M65.34,112.17c4.53,8.06,5.08,8.33,7.48,9s8.48-.85,10.61-6.22,3.52-10,4.65-12.15-1.26-2.24-3-.41a69.56,69.56,0,0,0-4.66,6.36s-9.47-3.55-15.12,3.38Z"></path><path class="cls-26" d="M67.33,115.65c2.79,4.69,3.5,5,5.49,5.56,2.4.71,8.48-.85,10.61-6.22s3.52-10,4.65-12.15a1.93,1.93,0,0,0,.22-.53.29.29,0,0,1-.18.07c-.73.19-3.5,7.57-4.83,10.48s-5.94,5.74-8.71,5.74c-2.31,0-4.92-.07-7.25-2.95Z"></path><polygon class="cls-21" points="129.3 97.3 120.33 103.48 127.97 107.35 120.7 113.78 134.08 150.92 135.4 149.85 131.72 95.84 129.3 97.3"></polygon><path class="cls-21" d="M155.19,95.25l9.56,10.15-9.67,2.91,5.44,5.46L133.9,151.18Z"></path><path class="cls-23" d="M136.05,161.68c.68,0,1.21-.9,1.21-2s-.53-2-1.21-2-1.19.89-1.19,2,.52,2,1.19,2Z"></path><path class="cls-23" d="M135.38,172.72c.67.05,1.17.94,1.12,2s-.62,1.94-1.28,1.9-1.17-.92-1.12-2,.62-1.92,1.28-1.9Z"></path><path class="cls-21" d="M144.65,134c-12.33,23-8.67,10.11-10.87,41.79l-1.92,24.48.5-24.54c.89-30.63-1.37-20.25,10.18-42.83a1.2,1.2,0,0,1,1.6-.5,1.19,1.19,0,0,1,.51,1.6Z"></path><path class="cls-26" d="M123.65,62.1l-.42.07h0a5.48,5.48,0,1,0,4.6,1.07c.14,1.63-.09,3.64-2.17,3.85l0-3.16a1.89,1.89,0,0,0-2.06-1.83Z"></path><path class="cls-26" d="M159.81,62.1a3.45,3.45,0,0,1,.39.07h0a5.47,5.47,0,1,1-4.55,1.12c-.14,1.62.14,3.64,2.2,3.82L157.78,64a1.87,1.87,0,0,1,2-1.85Z"></path><path class="cls-27" d="M141.76,89.6C152,89.6,160.55,76.94,160.55,67V53.7a18.83,18.83,0,0,0-18.79-18.78h0A18.82,18.82,0,0,0,123,53.7v13c0,10.94,7.44,22.93,18.78,22.93Z"></path><path class="cls-28" d="M148,57a.76.76,0,0,0-.39,1,.77.77,0,0,0,1,.39,5.17,5.17,0,0,1,4.64.3.79.79,0,1,0,.85-1.33A6.76,6.76,0,0,0,148,57Z"></path><path class="cls-28" d="M129.41,57.39a.79.79,0,1,0,.78,1.37,5.07,5.07,0,0,1,4.64-.07.83.83,0,0,0,1.08-.34.81.81,0,0,0-.35-1.08,6.86,6.86,0,0,0-6.15.12Z"></path><path class="cls-29" d="M141.26,68.23a15.83,15.83,0,0,0-.91,3c.06.41,2.15.78,2.7.25.36-.34-.1-1.9-.49-3-.54-1.42-.84-1.53-1.3-.25Z"></path><path class="cls-18" d="M138.15,80a3.07,3.07,0,0,0,6.13,0,.56.56,0,0,0-.57-.57h-5a.56.56,0,0,0-.57.57Z"></path><path class="cls-14" d="M144,77.4h-4.39v.53a.49.49,0,0,0,.5.48h3.39a.49.49,0,0,0,.5-.48Z"></path><path class="cls-30" d="M139,82.14a3.14,3.14,0,0,0,2.22.94,3.1,3.1,0,0,0,2.21-.94,3,3,0,0,0-2.21-1,3,3,0,0,0-2.22,1Z"></path><path class="cls-21" d="M123,66.4,124.79,59s5.86-4.27,3.78-10.24-2.5-5.4-2.5-5.4-7.8,3.52-4.32,19.35Z"></path><path class="cls-21" d="M160.55,66.4,158.74,59s-5.86-4.27-3.78-10.24,2.5-5.4,2.5-5.4,7.77,3.52,4.32,19.35Z"></path><path class="cls-18" d="M151,64.82a1.73,1.73,0,0,0-1.17.48,1.67,1.67,0,0,0-.48,1.15.64.64,0,0,1-.64.66.67.67,0,0,1-.66-.66,2.91,2.91,0,0,1,.87-2.06,3,3,0,0,1,2.08-.87,3,3,0,0,1,2.93,2.93.66.66,0,1,1-1.31,0,1.63,1.63,0,0,0-.48-1.15,1.6,1.6,0,0,0-1.14-.48Z"></path><path class="cls-18" d="M132.57,64.82a1.63,1.63,0,0,0-1.15.48,1.55,1.55,0,0,0-.48,1.15.66.66,0,0,1-.64.66.67.67,0,0,1-.66-.66,2.83,2.83,0,0,1,.87-2.06,2.91,2.91,0,0,1,2.06-.87,3,3,0,0,1,2.08.87,2.89,2.89,0,0,1,.85,2.06.65.65,0,0,1-.64.66.67.67,0,0,1-.67-.66,1.55,1.55,0,0,0-.48-1.15,1.6,1.6,0,0,0-1.14-.48Z"></path><path class="cls-21" d="M141.44,85.39c2.77,0,4.1-3.44,4.1-4.62s-.57-1.65-1.3-1.65h-5.61c-.71,0-1.33.46-1.3,1.65s1.32,4.62,4.11,4.62Zm0-10.66c9.45,0,8,9.42,11.6,6.33a17.09,17.09,0,0,0,5.7-11.85V59l1.81,1.79.54,4.71a25.68,25.68,0,0,0-.57,5.44c0,16.13-13.13,22.79-19.08,22.88-6.2-.14-19.1-6.75-19.1-22.88a25.68,25.68,0,0,0-.57-5.44l.55-4.71L124.13,59V69.21a17.16,17.16,0,0,0,5.69,11.85c3.57,3.09,2.18-6.33,11.62-6.33Z"></path><path class="cls-18" d="M145.38,61.21a14.55,14.55,0,0,1-3.62.77,14.38,14.38,0,0,1-3.61-.77,30.23,30.23,0,0,0-13.34-.28c-1,.23-1.21,2.31-.18,2.52a1,1,0,0,1,.76.66c.27.83,1,4.28,2.21,5.63,2.36,2.58,9.61,2.58,11.42-1.56.85-1.94,1.33-3.63,1.85-4.16a1.26,1.26,0,0,1,.89-.3,1.16,1.16,0,0,1,.87.3c.55.53,1,2.22,1.88,4.16,1.81,4.14,9,4.14,11.41,1.56,1.26-1.35,1.93-4.8,2.22-5.63a1,1,0,0,1,.76-.66c1-.21.87-2.29-.18-2.52a30.22,30.22,0,0,0-13.34.28ZM138.63,63c.66,1-.32,4.14-1,5.21-1.7,2.73-5.74,2.82-8.4,1.44-1.1-.54-1.62-2.31-1.88-3.36s-.73-3.36.56-4.09c1.94-1.17,9.58-1,10.7.8Zm7.23,5.21c-.64-1.07-1.62-4.16-1-5.21,1.1-1.81,8.76-2,10.7-.8,1.26.73.8,3,.55,4.09s-.8,2.82-1.87,3.36c-2.68,1.38-6.73,1.29-8.42-1.44Z"></path><path class="cls-20" d="M157.36,48.83c9.06,9.63,11-8.9-.61-16.45-9.5-6.17-25.87-1.78-25.87-1.78,7.54-8.24-16.34-3.34-11.53,15,1.89,7.3,9.1,13,20.29,8.65s15.16.18,16.19.2,1.9-2.47,1.53-5.67Z"></path><path class="cls-26" d="M80.21,108.83c.16-.27-.58-1.35-1-1.53-3.48.92-7.8,3.27-8.76,7,0,.09,0,.14,0,.16.62-2.12,3.85-4.48,6.52-5.42a7.84,7.84,0,0,1,3.3-.23Z"></path><path class="cls-26" d="M76.18,103.89c.39-.66-2.29-1.19-4.89-.39a8.94,8.94,0,0,0-6,6.43c0,.09,0,.14,0,.16.69-2.33,4.19-4.87,7.12-5.92a9.92,9.92,0,0,1,3.84-.28Z"></path><path class="cls-2" d="M244.37,113.61a16.8,16.8,0,1,0-16.8-16.8A16.83,16.83,0,0,0,244.37,113.61Z"></path><path class="cls-2" d="M227.38,121.35a16.8,16.8,0,1,0-16.79-16.8A16.84,16.84,0,0,0,227.38,121.35Z"></path><path class="cls-12" d="M259.63,121.58l4.7-7.41s5.11,1.65,7.31,4.8,12.61,24.48,15.63,31.62,3.29,9.87.55,17.83-9.74,19.44-11,21.43a18.89,18.89,0,0,1-3.51,4c-.74.63-5.47-.88-5.47-.88l.68-6.42s1.13,1.14,2.3-.41,8.37-23.59,8.64-24.62-.28-2.12-1-3.49-15.84-22.43-15.84-22.43Z"></path><path class="cls-11" d="M284.31,144l.09.2-8.61,9.85c-1-1.49-2.29-3.26-3.61-5.11l8-6Z"></path><path class="cls-31" d="M271.1,117.21a26.81,26.81,0,0,1,3.27,4.68c1.57,2.83,10.44,21.13,10.44,21.13a1.2,1.2,0,0,1-.28,1.07c-.44.44-9.93,8-9.93,8s-.89.72-1.55.06-5.57-9-5.57-9S264.05,121.1,271.1,117.21Z"></path><path class="cls-12" d="M219.36,121.58l-4.7-7.41s-5.11,1.65-7.3,4.8-12.62,24.48-15.64,31.62-3.29,9.87-.54,17.83,9.73,19.44,11,21.43a19.15,19.15,0,0,0,3.52,4c.74.63,5.47-.88,5.47-.88l-.69-6.42s-1.13,1.14-2.29-.41-8.37-23.59-8.64-24.62.27-2.12,1-3.49,15.84-22.43,15.84-22.43Z"></path><path class="cls-11" d="M203,154.4c1-1.47,2.29-3.26,3.63-5.14l-8.1-7.34-3.85,2.17Z"></path><path class="cls-31" d="M208.08,117.21a27.11,27.11,0,0,0-3.26,4.68c-1.58,2.83-10.44,21.13-10.44,21.13a1.2,1.2,0,0,0,.28,1.07c.44.44,9.93,8,9.93,8s.89.72,1.55.06,5.57-9,5.57-9S215.13,121.1,208.08,117.21Z"></path><path class="cls-2" d="M236.08,46.9a26.63,26.63,0,0,0-17.83,13c-4.85,8.28-2.32,18.51.3,26.55h40.61C260.57,77,264.08,64,262,59.17c-2.38-5.66-7.53-4.34-7.53-4.34S253.12,44.17,236.08,46.9Z"></path><path class="cls-11" d="M265.34,196.08H213.65c6.6-14.25,5.28-22.79,3-39.15-3-5.85-5.32-16.49-3.72-24.12s1.77-18.64,1.77-18.64,15-3.31,16.37-4,1.45-3.46,1.45-3.46l7-1.5,7,1.5s.12,2.8,1.45,3.46,16.36,4,16.36,4,.18,11,1.77,18.64-.7,18.27-3.72,24.12C260.06,173.29,258.75,181.83,265.34,196.08Z"></path><path class="cls-12" d="M226.64,265.29c3-19,5.85-26.21,6.65-32.39l-18.83-26.34c.84,6.85-7.9,55.3-8.09,56.36-7,39-2.68,87.7-4.2,105.85-.14,1.67-2.79,15.63-2.79,15.63L198,390.06l.21,2.33,6.36,1.51,6-4.32s1.35-14.88,1-17.69a32.84,32.84,0,0,0-.76-4.44l-.51-.69C215.44,333.19,223.61,284.23,226.64,265.29Z"></path><path class="cls-32" d="M199.38,384.4a33.05,33.05,0,0,1-1.92,4.42,49.79,49.79,0,0,0-3.49,4.49c-.38.89-1.12,3.62,1.86,3.62h10.66c2.84,0,5.24-.89,5.27-3.53s.23-12,.61-14,1.38-4.34.9-6.34a29,29,0,0,0-2.37-5.8,2,2,0,0,0-.61-.46l.31,1.77a9.07,9.07,0,0,1,.21,1.27c.25,2.92-.83,16.1-.83,17.2s-1.15,1.82-3.26,2.4-6.47,1.11-8.1-.46a.81.81,0,0,1-.12-.8C198.64,387.57,199.38,384.4,199.38,384.4Z"></path><path class="cls-12" d="M252.55,265.29c-3-19-5.85-26.21-6.65-32.39l18.82-26.34c-.83,6.85,7.91,55.3,8.1,56.36,7,39,2.68,87.7,4.19,105.85.14,1.67,2.8,15.63,2.8,15.63l1.42,5.66-.21,2.33-6.36,1.51-6-4.32s-1.36-14.88-1-17.69a32.84,32.84,0,0,1,.76-4.44l.5-.69C263.74,333.19,255.58,284.23,252.55,265.29Z"></path><path class="cls-32" d="M279.81,384.4a33.05,33.05,0,0,0,1.92,4.42c.6.83,3.1,3.59,3.48,4.49s1.12,3.62-1.85,3.62H272.7c-2.84,0-5.24-.89-5.27-3.53s-.23-12-.61-14-1.38-4.34-.9-6.34a29.71,29.71,0,0,1,2.36-5.8,2.3,2.3,0,0,1,.61-.46l-.31,1.77a9.19,9.19,0,0,0-.2,1.27c-.26,2.92.83,16.1.83,17.2s1.15,1.82,3.26,2.4,6.46,1.11,8.1-.46a.84.84,0,0,0,.12-.8C280.55,387.57,279.81,384.4,279.81,384.4Z"></path><path class="cls-11" d="M226.64,265.29c.68-4.29,1.36-8,2-11.2l-21.15,2.52c-.65,3.69-1.08,6.08-1.12,6.31q-.51,2.88-1,5.84a125.47,125.47,0,0,0,19.66,6.18C225.68,271.21,226.21,268,226.64,265.29Z"></path><path class="cls-11" d="M252.55,265.29c-.87-5.45-1.72-9.93-2.52-13.7,7.56-.87,14.74-1.68,20.41-2.28,1.3,7.61,2.31,13.25,2.38,13.61.73,4.09,1.34,8.28,1.84,12.54A103.94,103.94,0,0,1,254.6,278C253.79,273,253.09,268.65,252.55,265.29Z"></path><path class="cls-8" d="M212.6,196.29l-10,59.09-1.26,7.67s.25,2,3.53,2.77a225.44,225.44,0,0,0,34.78,3.27,225.42,225.42,0,0,0,34.77-3.27c3.27-.76,3.52-2.77,3.52-2.77l-1.26-7.67-10.05-59.09L262.25,183c.31-2.14-.85-5.7-1.39-5.68s-21.26-1.9-21.26-1.9-20.74,1.92-21.27,1.9-1.7,3.54-1.4,5.68Z"></path><path class="cls-2" d="M212.6,196.29,212,200l10.38-5,2-6.69,3.26-2.23-2.51-3.81s12.45-2.64,29.53,0L252,186.1l2.41,3.28,3.9,6.18,10.16,58.73s1.88,6.4-3.48,13c4.6-.57,8.1-1.14,9.37-1.43,3.27-.76,3.52-2.77,3.52-2.77l-1.26-7.67-10.05-59.09L262.25,183c.31-2.14-.85-5.7-1.39-5.68s-21.26-1.9-21.26-1.9-20.74,1.92-21.27,1.9-1.7,3.54-1.4,5.68Z"></path><path class="cls-11" d="M239.5,89h0a7,7,0,0,1,7,7v13.45a7,7,0,0,1-7,7h0a7,7,0,0,1-7-7V96.07A7,7,0,0,1,239.5,89Z"></path><path class="cls-12" d="M269.58,187.8s-4.45-5.12-5.81-6-5.89-1.41-7.87-1.54-4.24,4.64-4.79,5.38,2.12.91,3.66-1.45c0,0-2.09,9.4-2.15,9.9s.58.87,1.19.47l.72-.48c-.27.68-.49,1.27-.55,1.49-.17.64,1.27,1.21,2.7-.54l-.31,1a.31.31,0,0,0,.29.42,4,4,0,0,0,2.79-2.4,20.12,20.12,0,0,0,1.27-4.21,6.49,6.49,0,0,1,1.84-.78,6.21,6.21,0,0,0,1.41,4.21,6.91,6.91,0,0,0,9.3.6Z"></path><path class="cls-11" d="M251.41,186.11a3.77,3.77,0,0,0,3.36-1.92,2.78,2.78,0,0,1,1.88-1.19,3.12,3.12,0,0,0-1.95.15,29.78,29.78,0,0,0-3.29,3Zm1.94,8.62,3.24-9.31-2.06,8.66-.72.48a1,1,0,0,1-.46.17Zm1.39,1.47a2.68,2.68,0,0,0,1.94-1.17c.41-.93,1.86-6.84,1.86-6.84l-3.8,8Zm7.82-7.16a6.21,6.21,0,0,0,1.41,4.21A6.76,6.76,0,0,0,271.2,195Z"></path><path class="cls-11" d="M272.19,192.09l-.23-8.63a17.56,17.56,0,0,1-1.18,2.68c-1.17,1.55-2.3.41-2.3.41A34.11,34.11,0,0,1,272.19,192.09Z"></path><path class="cls-31" d="M247.75,110.05a9.94,9.94,0,0,1-16.31,0c-.55-.62-1.65-.23-3.92.58s-7,1.52-12,2.55a13.13,13.13,0,0,0-7.42,4c2.32,2.36,1.76,26.09,5.33,35.85,1.52,4.13,3.11,8.13,3.2,9,.17,1.63-.43,11.1.09,12.52s.64,2.27,2,2.95,5.37,0,9.31-.55,11.63-.52,11.63-.52,7.67,0,11.62.52,8,1.24,9.31.55,1.44-1.54,2-2.95-.09-10.89.08-12.52c.09-.82,1.56-4.53,3-8.47,3.64-9.88,3.35-34.16,5.51-36.36a13.07,13.07,0,0,0-7.41-4c-5.06-1-9.75-1.73-12-2.55S248.3,109.43,247.75,110.05Z"></path><path class="cls-33" d="M211.47,144.19a45.87,45.87,0,0,0,1.94,8.87c.34.9.67,1.81,1,2.67a3.49,3.49,0,0,1,2.84-1.35H253.1a5.83,5.83,0,0,1,3.39,1.59c.92.92,3.93,4.1,6.07,6.35a2.35,2.35,0,0,1,0-.28c.09-.82,1.56-4.53,3-8.47a48.34,48.34,0,0,0,2.07-9.42l-.18-.94L264.93,119l-1.39,19.12s-.88,4.15-4.53,4.15h-42.9s-2.26.46-2.86-2.35-1.86-10.48-1.86-10.48Z"></path><path class="cls-14" d="M227.52,110.63s.62,0,.79,2.22c.92,12.18,9.74,12,11.29,4.63,1.54,7.38,10.36,7.55,11.28-4.63.17-2.27.79-2.22.79-2.22-2.28-.81-3.37-1.2-3.92-.58a9.94,9.94,0,0,1-16.31,0C230.89,109.43,229.79,109.82,227.52,110.63Z"></path><path class="cls-17" d="M256.69,80.67l.37.06h0a5,5,0,1,1-6.09,5,5.08,5.08,0,0,1,1.89-4c-.13,1.48.09,3.32,2,3.52l0-2.9A1.73,1.73,0,0,1,256.69,80.67Z"></path><path class="cls-17" d="M222.38,80.43l-.37.06h0a5,5,0,1,0,4.18,1c.12,1.48-.13,3.31-2,3.48l.08-2.89A1.72,1.72,0,0,0,222.38,80.43Z"></path><path class="cls-12" d="M239.5,105.79c-9.37,0-17.18-11.55-17.18-20.68V73A17.23,17.23,0,0,1,239.5,55.81h0A17.23,17.23,0,0,1,256.67,73V84.86C256.67,94.86,249.86,105.79,239.5,105.79Z"></path><path class="cls-17" d="M249.29,88.92a2.38,2.38,0,1,0,2.43,2.33A2.37,2.37,0,0,0,249.29,88.92Z"></path><path class="cls-17" d="M229.58,89.3A2.38,2.38,0,1,0,232,91.63,2.37,2.37,0,0,0,229.58,89.3Z"></path><path class="cls-2" d="M234.39,76.45a.72.72,0,0,1,.36,1,.71.71,0,0,1-.95.36,4.73,4.73,0,0,0-4.25.27.72.72,0,0,1-1-.22.73.73,0,0,1,.23-1A6.24,6.24,0,0,1,234.39,76.45Z"></path><path class="cls-2" d="M251.38,76.77a.73.73,0,0,1,.28,1,.72.72,0,0,1-1,.28,4.74,4.74,0,0,0-4.26-.07.73.73,0,0,1-1-.31.72.72,0,0,1,.31-1A6.23,6.23,0,0,1,251.38,76.77Z"></path><path class="cls-13" d="M241.51,87a16.51,16.51,0,0,1,.83,2.82c-.06.36-2,.45-2.47-.1-.33-.36.08-1.73.44-2.64C240.81,85.82,241.08,85.76,241.51,87Z"></path><path class="cls-14" d="M243.4,93.74a3.9,3.9,0,1,1-7.8,0,.71.71,0,0,1,.71-.71h6.37A.71.71,0,0,1,243.4,93.74Z"></path><path class="cls-2" d="M256.67,84.19l-1.79-7.26s-5.78-4.24-3.73-10.14,2.46-5.32,2.46-5.32,7.7,3.47,4.28,19.11Z"></path><path class="cls-2" d="M222.32,84.19l1.79-7.26s5.78-4.24,3.73-10.14-2.45-5.32-2.45-5.32-7.71,3.47-4.28,19.11Z"></path><path class="cls-2" d="M225,70.11l-2.65,7.46a40.38,40.38,0,0,0,15-8.49c6.7-6.23,8.39-4.53,9.06-2.55s4,10.47,9.15,11,4.34-12.83-3.59-18.49-22.36-4.63-25.57-.76S225,70.11,225,70.11Z"></path><path class="cls-12" d="M209.45,187.8s4.45-5.12,5.82-6,5.88-1.41,7.86-1.54,4.24,4.64,4.79,5.38-2.12.91-3.66-1.45c0,0,2.09,9.4,2.15,9.9s-.58.87-1.19.47l-.71-.48c.26.68.48,1.27.54,1.49.17.64-1.26,1.21-2.7-.54l.31,1a.31.31,0,0,1-.29.42,4,4,0,0,1-2.79-2.4,20.12,20.12,0,0,1-1.27-4.21,6.38,6.38,0,0,0-1.84-.78,6.15,6.15,0,0,1-1.41,4.21,6.91,6.91,0,0,1-9.3.6Z"></path><path class="cls-11" d="M227.63,186.11a3.78,3.78,0,0,1-3.37-1.92,2.78,2.78,0,0,0-1.88-1.19,3.12,3.12,0,0,1,2,.15,30.64,30.64,0,0,1,3.3,3Zm-1.95,8.62-3.23-9.31,2.05,8.66.72.48a1,1,0,0,0,.46.17Zm-1.39,1.47a2.68,2.68,0,0,1-1.94-1.17c-.41-.93-1.86-6.84-1.86-6.84l3.8,8ZM216.47,189a6.15,6.15,0,0,1-1.41,4.21,6.76,6.76,0,0,1-7.23,1.72Z"></path><path class="cls-11" d="M206.84,192.09l.24-8.63a16.89,16.89,0,0,0,1.17,2.68c1.17,1.55,2.3.41,2.3.41A34.77,34.77,0,0,0,206.84,192.09Z"></path><path class="cls-2" d="M230.71,86.49a2,2,0,0,1-2-2,2,2,0,0,1,0-.43l-.22-.08a1.84,1.84,0,0,1-.69-.43.24.24,0,0,1,0-.35.25.25,0,0,1,.35,0,1.48,1.48,0,0,0,.67.38h0a1.64,1.64,0,0,1-.61-.64.24.24,0,0,1,.1-.33.24.24,0,0,1,.33.1,1.16,1.16,0,0,0,.51.5l0,0a1.14,1.14,0,0,1-.36-.54.25.25,0,0,1,.48-.14.55.55,0,0,0,.26.35,2,2,0,0,1,1.08-.32,2,2,0,0,1,0,3.92Z"></path><path class="cls-2" d="M248.29,86.49a2,2,0,0,0,2-2,2,2,0,0,0-.05-.43l.23-.08a1.92,1.92,0,0,0,.69-.43.25.25,0,1,0-.34-.36,1.51,1.51,0,0,1-.68.38h0a1.72,1.72,0,0,0,.61-.64.24.24,0,0,0-.11-.33.25.25,0,0,0-.33.1,1.16,1.16,0,0,1-.51.5l0,0a1.08,1.08,0,0,0,.36-.54.25.25,0,1,0-.47-.14.59.59,0,0,1-.27.35,1.93,1.93,0,0,0-1.07-.32,2,2,0,0,0,0,3.92Z"></path></g></svg> 